<svg id="Layer_1" data-name="Layer 1" xmlns="http://www.w3.org/2000/svg" xmlns:xlink="http://www.w3.org/1999/xlink" viewBox="0 0 1670.13 609.52"><defs><style>.cls-1{fill:url(#linear-gradient);}</style><linearGradient id="linear-gradient" x1="188.94" y1="1024" x2="1859.06" y2="1024" gradientUnits="userSpaceOnUse"><stop offset="0" stop-color="#4f68b0"/><stop offset="0" stop-color="#4b62a8"/><stop offset="0" stop-color="#415093"/><stop offset="0" stop-color="#303471"/><stop offset="0" stop-color="#26235d"/><stop offset="0.47" stop-color="#272c72"/><stop offset="1" stop-color="#28388e"/></linearGradient></defs><path class="cls-1" d="M1025.84,720.77v603.79H959.23L726.7,1033.88c-1.91,64.89-13.39,117.78-34.2,158.2-.24.33-.47.66-.72,1-4.89,6.62-9.59,13.9-16.29,20.21A67.18,67.18,0,0,1,653,1227.09c-17.31,6.44-38.63,8-59.75,4.44,0,0-43.22-7.27-74.28-22.83-5.9-3-11.53-5.58-16.87-8.27-9.19-4.62-17.89-9.19-27.25-14.8,41.47-2.36,72.88-14.37,93.45-35.83,23.27-24.3,35.08-70.27,35.08-136.62L604,719.24l31.74,36.16c9.7,11.06,194.15,221.26,270,307.73V720.77ZM357,1161s-8.14-10.21-8.13-10.21c-20.79-23.72-36.33-73.69-36.33-136.69V720.77H188.94v293.28c0,108,24.83,184.47,73.8,227.43,48.27,42.37,113.51,84.45,193.91,84.45,59.93,0,110-30.56,149.89-50.16h-2c-29.28.15-90.68-11.49-168.78-57.43-25.81-15.17-28.66-17.07-49.68-32.74-4.72-3.53-12.74-10.21-17.66-14m769.24-175.44q23.44,0,38.64-14.12a45.79,45.79,0,0,0,15.19-34.91q0-21.31-15.19-35.44t-38.64-14.13q-24,0-39.18,14.13t-15.19,35.44a45.79,45.79,0,0,0,15.19,34.91Q1113.65,996.19,1137.64,996.18Zm-45.84,30.91V1324.5h91.14V1027.09Zm234.84,0h-97.53l105.52,297.41h112.46l105.54-297.41h-97l-64.49,212.13ZM1859.06,1171q0-44.77-18.92-78.35a130.26,130.26,0,0,0-52.49-51.7q-33.59-18.1-76.75-18.12-44.25,0-78.35,18.66a131,131,0,0,0-53,53.3q-18.91,34.64-18.91,81t19.18,81a132.69,132.69,0,0,0,53.3,53.3q34.1,18.66,77.82,18.65,36.24,0,65.55-13.32a134.7,134.7,0,0,0,48.77-36.78,133.28,133.28,0,0,0,26.92-52.76h-97q-13.32,28.77-47.43,28.78-22.93,0-38.64-14.66t-17.86-42.37h206.27A234,234,0,0,0,1859.06,1171Zm-207.32-24q3.72-24.51,19.45-37.85t38.64-13.32q24,0,40,13.86t16,37.31Z" transform="translate(-188.94 -719.24)"/></svg>