<?xml version="1.0" encoding="utf-8"?>
<!-- Generator: Adobe Illustrator 26.0.3, SVG Export Plug-In . SVG Version: 6.00 Build 0)  -->
<svg version="1.1" id="Layer_1" xmlns="http://www.w3.org/2000/svg" xmlns:xlink="http://www.w3.org/1999/xlink" x="0px" y="0px"
	 viewBox="0 0 40 40" style="enable-background:new 0 0 40 40;" xml:space="preserve">
<style type="text/css">
	.st0{fill:#3B5998;}
	.st1{fill:#FCFDFD;}
</style>
<g>
	<path class="st0" d="M40,18.55c0,1.01,0,2.03,0,3.04c-0.11,0.05-0.07,0.15-0.08,0.24c-0.13,1.45-0.38,2.89-0.87,4.26
		c-2.74,7.69-8.13,12.28-16.2,13.7c-0.45,0.08-0.92,0.05-1.36,0.21c-1.02,0-2.03,0-3.05,0c-0.04-0.1-0.13-0.07-0.2-0.08
		c-1.97-0.18-3.87-0.63-5.7-1.36C4.1,35.21-1.08,26.33,0.19,17.37c0.66-4.68,2.66-8.72,6.17-11.89c5.71-5.16,12.39-6.77,19.7-4.41
		c7.78,2.51,12.31,8.07,13.73,16.13C39.87,17.64,39.85,18.11,40,18.55z M21.47,27.35c0-2.07,0.01-4.13-0.01-6.2
		c0-0.27,0.07-0.35,0.35-0.35c0.96,0.02,1.93,0,2.89,0.01c0.24,0,0.35-0.05,0.37-0.31c0.12-1.29,0.25-2.59,0.4-3.88
		c0.04-0.32-0.03-0.43-0.38-0.42c-1.11,0.02-2.21,0-3.32,0.01c-0.24,0-0.32-0.06-0.31-0.3c0.02-0.79,0-1.59,0.01-2.38
		c0.02-0.88,0.39-1.25,1.27-1.26c0.82-0.01,1.64-0.01,2.46,0c0.24,0,0.32-0.07,0.32-0.31c-0.01-1.29-0.01-2.57,0-3.86
		c0-0.21-0.06-0.3-0.28-0.3c-1.44,0.02-2.89-0.06-4.33,0.02c-2.81,0.17-4.68,2.08-4.82,4.9c-0.05,1.04-0.03,2.08-0.03,3.12
		c0,0.3-0.09,0.37-0.38,0.36c-0.62-0.02-1.25,0.01-1.87-0.01c-0.26-0.01-0.33,0.08-0.33,0.33c0.01,1.31,0.01,2.63,0,3.94
		c0,0.29,0.1,0.34,0.36,0.34c0.59-0.02,1.17,0.02,1.76-0.01c0.39-0.02,0.47,0.1,0.47,0.47c-0.01,4.05,0,8.11-0.02,12.16
		c0,0.35,0.1,0.43,0.44,0.43c1.54-0.02,3.07-0.02,4.61,0c0.31,0,0.39-0.09,0.39-0.39C21.47,31.43,21.47,29.39,21.47,27.35z"/>
	<path class="st1" d="M21.47,27.35c0,2.04-0.01,4.08,0.01,6.12c0,0.3-0.08,0.4-0.39,0.39c-1.54-0.02-3.07-0.02-4.61,0
		c-0.34,0-0.44-0.08-0.44-0.43c0.01-4.05,0-8.11,0.02-12.16c0-0.37-0.08-0.5-0.47-0.47c-0.58,0.04-1.17,0-1.76,0.01
		c-0.26,0.01-0.36-0.05-0.36-0.34c0.01-1.31,0.01-2.63,0-3.94c0-0.25,0.06-0.34,0.33-0.33c0.62,0.02,1.25-0.01,1.87,0.01
		c0.29,0.01,0.38-0.06,0.38-0.36c-0.01-1.04-0.02-2.08,0.03-3.12c0.14-2.82,2.01-4.73,4.82-4.9c1.44-0.09,2.89-0.01,4.33-0.02
		c0.23,0,0.29,0.08,0.28,0.3c-0.01,1.29-0.01,2.57,0,3.86c0,0.24-0.08,0.31-0.32,0.31c-0.82-0.01-1.64-0.01-2.46,0
		c-0.89,0.01-1.26,0.37-1.27,1.26c-0.01,0.79,0.01,1.59-0.01,2.38c0,0.24,0.08,0.31,0.31,0.3c1.11-0.01,2.21,0.01,3.32-0.01
		c0.35-0.01,0.41,0.11,0.38,0.42c-0.15,1.29-0.28,2.58-0.4,3.88c-0.02,0.26-0.14,0.31-0.37,0.31c-0.96-0.01-1.93,0.01-2.89-0.01
		c-0.27,0-0.35,0.07-0.35,0.35C21.48,23.22,21.47,25.29,21.47,27.35z"/>
</g>
</svg>
