<?xml version="1.0" encoding="utf-8"?>
<!-- Generator: Adobe Illustrator 26.0.3, SVG Export Plug-In . SVG Version: 6.00 Build 0)  -->
<svg version="1.1" id="Layer_1" xmlns="http://www.w3.org/2000/svg" xmlns:xlink="http://www.w3.org/1999/xlink" x="0px" y="0px"
	 viewBox="0 0 40 40" style="enable-background:new 0 0 40 40;" xml:space="preserve">
<style type="text/css">
	.st0{fill:#A807C7;}
	.st1{fill:#A306CB;}
	.st2{fill:#8F00DB;}
	.st3{fill:#FDB82A;}
	.st4{fill:#9D04D0;}
	.st5{fill:#A005CD;}
	.st6{fill:#FDC522;}
	.st7{fill:#9A03D3;}
	.st8{fill:#9602D6;}
	.st9{fill:#AB08C4;}
	.st10{fill:#FDC125;}
	.st11{fill:#FDA734;}
	.st12{fill:#AE09C2;}
	.st13{fill:#FDCA1F;}
	.st14{fill:#FDCE1D;}
	.st15{fill:#FDBC27;}
	.st16{fill:#FDAE30;}
	.st17{fill:#BD0EB6;}
	.st18{fill:#9201D9;}
	.st19{fill:#FDA336;}
	.st20{fill:#B80CBA;}
	.st21{fill:#C911AB;}
	.st22{fill:#FDAB31;}
	.st23{fill:#C20FB2;}
	.st24{fill:#B20ABF;}
	.st25{fill:#CE13A7;}
	.st26{fill:#D013A6;}
	.st27{fill:#B40BBD;}
	.st28{fill:#B50BBC;}
	.st29{fill:#FDD21A;}
	.st30{fill:#C510AF;}
	.st31{fill:#B10ABF;}
	.st32{fill:#FDD619;}
	.st33{fill:#CB12AA;}
	.st34{fill:#D415A2;}
	.st35{fill:#FD9A3B;}
	.st36{fill:#FD7054;}
	.st37{fill:#FD9F38;}
	.st38{fill:#D8169F;}
	.st39{fill:#C911AC;}
	.st40{fill:#FDDB16;}
	.st41{fill:#DC179C;}
	.st42{fill:#BF0EB4;}
	.st43{fill:#C20FB1;}
	.st44{fill:#E91B91;}
	.st45{fill:#D214A4;}
	.st46{fill:#FD7750;}
	.st47{fill:#FD7650;}
	.st48{fill:#ED1C8E;}
	.st49{fill:#F21E8A;}
	.st50{fill:#FD953E;}
	.st51{fill:#FC2181;}
	.st52{fill:#F92084;}
	.st53{fill:#E51A94;}
	.st54{fill:#FD5861;}
	.st55{fill:#FD446C;}
	.st56{fill:#FD9141;}
	.st57{fill:#DF1899;}
	.st58{fill:#FD6958;}
	.st59{fill:#F51F87;}
	.st60{fill:#FD3D71;}
	.st61{fill:#FD5166;}
	.st62{fill:#FD5165;}
	.st63{fill:#FD8A45;}
	.st64{fill:#E21997;}
	.st65{fill:#FD8647;}
	.st66{fill:#FD615C;}
	.st67{fill:#FD7A4E;}
	.st68{fill:#FD7B4E;}
	.st69{fill:#FD3E70;}
	.st70{fill:#FD3476;}
	.st71{fill:#FD655A;}
	.st72{fill:#FD4B69;}
	.st73{fill:#FD8D43;}
	.st74{fill:#FD8945;}
	.st75{fill:#FDAC30;}
	.st76{fill:#FD8249;}
	.st77{fill:#FD7F4B;}
	.st78{fill:#FD5D5F;}
	.st79{fill:#FD7E4B;}
	.st80{fill:#FD3973;}
	.st81{fill:#FD2E79;}
	.st82{fill:#FD267E;}
	.st83{fill:#FD267D;}
	.st84{fill:#FD476B;}
	.st85{fill:#FD446D;}
	.st86{fill:#FD3873;}
	.st87{fill:#FD2A7B;}
	.st88{fill:#FDD21D;}
	.st89{fill:#FDB22D;}
	.st90{fill:#AD09C3;}
	.st91{fill:#FEFEFE;}
	.st92{fill:#FD5762;}
	.st93{fill:#CC12A9;}
	.st94{fill:#FD6E55;}
	.st95{fill:#FD784F;}
	.st96{fill:#F82085;}
	.st97{fill:#F31E89;}
	.st98{fill:#EE1C8D;}
	.st99{fill:#FD5C5F;}
	.st100{fill:#D9169E;}
	.st101{fill:#E41995;}
	.st102{fill:#C210B1;}
	.st103{fill:#FD7352;}
	.st104{fill:#EF1D8C;}
	.st105{fill:#EC1C8F;}
	.st106{fill:#DD179B;}
	.st107{fill:#E01898;}
	.st108{fill:#FD277D;}
	.st109{fill:#C811AD;}
	.st110{fill:#FD5066;}
	.st111{fill:#FD3D70;}
	.st112{fill:#BF0FB4;}
	.st113{fill:#FD8449;}
	.st114{fill:#FD456C;}
	.st115{fill:#FD2E7A;}
	.st116{fill:#FD4A69;}
	.st117{fill:#FD4A6A;}
	.st118{fill:#C811AC;}
	.st119{fill:#FD3874;}
	.st120{fill:#FD8948;}
	.st121{fill:#FEFDFE;}
	.st122{fill:#EA1B90;}
	.st123{fill:#E61A94;}
	.st124{fill:#FD277E;}
	.st125{fill:#FD2F79;}
	.st126{fill:#FD3776;}
	.st127{fill:#FD2B7C;}
</style>
<g>
	<path class="st0" d="M39.92,18.73c0.09,0.48,0.13,0.97,0,1.45c-0.12,0.1-0.22,0.03-0.32-0.04c-0.11-0.08-0.2-0.18-0.29-0.27
		c-6.4-6.4-12.8-12.8-19.19-19.2c-0.15-0.15-0.35-0.28-0.36-0.54c0.01-0.04,0.03-0.08,0.06-0.11c0.49-0.01,0.97-0.06,1.45,0.06
		c-0.09,0.1-0.21,0.18-0.06,0.32c0.09,0.08,0.17,0.17,0.25,0.25c5.96,5.96,11.92,11.92,17.88,17.88c0.08,0.08,0.17,0.16,0.25,0.25
		C39.74,18.94,39.82,18.81,39.92,18.73z"/>
	<path class="st1" d="M39.92,18.73c-0.04,0.1,0.06,0.26-0.09,0.31c-0.1,0.03-0.19-0.06-0.26-0.13c-0.07-0.07-0.15-0.15-0.22-0.22
		C33.33,12.67,27.32,6.66,21.31,0.65c-0.07-0.07-0.15-0.15-0.22-0.22c-0.07-0.08-0.17-0.17-0.13-0.27c0.05-0.14,0.21-0.04,0.31-0.09
		c0.35,0.01,0.71-0.03,1.06,0.1c-0.07,0.08-0.21,0.14-0.07,0.28c0.09,0.1,0.18,0.19,0.28,0.29c5.58,5.58,11.15,11.15,16.73,16.73
		c0.09,0.09,0.19,0.19,0.29,0.28c0.14,0.14,0.2-0.01,0.28-0.07C39.95,18.01,39.91,18.37,39.92,18.73z"/>
	<path class="st2" d="M27.96,1.69c4.49,1.92,7.75,5.13,9.97,9.45c0.15,0.3,0.16,0.65,0.39,0.92c0.04,0.19-0.09,0.15-0.19,0.12
		c-0.18-0.05-0.3-0.19-0.42-0.31c-3.19-3.19-6.38-6.38-9.57-9.57C28,2.16,27.85,2.03,27.81,1.83C27.78,1.72,27.79,1.6,27.96,1.69z"
		/>
	<path class="st3" d="M18.72,39.92c-0.35-0.01-0.71,0.04-1.06-0.09c0.04-0.07,0.16-0.11,0.06-0.22c-0.07-0.07-0.15-0.15-0.22-0.22
		C11.87,33.76,6.24,28.12,0.6,22.5c-0.1-0.1-0.17-0.42-0.43-0.17c-0.13-0.34-0.08-0.7-0.09-1.06c-0.03-0.06-0.04-0.12-0.02-0.19
		c0.11-0.1,0.19-0.01,0.27,0.05c0.12,0.09,0.22,0.2,0.32,0.3c5.97,5.97,11.94,11.94,17.91,17.91c0.16,0.16,0.45,0.27,0.36,0.59
		C18.84,39.96,18.78,39.95,18.72,39.92z"/>
	<path class="st4" d="M23.03,0.26c0.34,0,0.66,0.06,0.98,0.17c0.03,0.19,0.19,0.29,0.31,0.41c4.94,4.94,9.87,9.88,14.81,14.81
		c0.12,0.12,0.22,0.28,0.41,0.32c0.11,0.32,0.17,0.65,0.17,0.98c0.08,0.24-0.04,0.27-0.22,0.2c-0.14-0.05-0.23-0.18-0.34-0.28
		C33.82,11.53,28.46,6.18,23.11,0.82c-0.1-0.1-0.23-0.2-0.28-0.34C22.76,0.3,22.8,0.18,23.03,0.26z"/>
	<path class="st5" d="M23.03,0.26c-0.11,0.02-0.23,0.05-0.13,0.19c0.07,0.1,0.16,0.17,0.24,0.26c5.38,5.38,10.75,10.76,16.13,16.13
		c0.08,0.08,0.16,0.18,0.26,0.24c0.14,0.1,0.17-0.01,0.19-0.12c0.11,0.23,0.09,0.47,0.09,0.71c-0.02,0.1,0,0.26-0.05,0.29
		c-0.11,0.06-0.22-0.05-0.3-0.13c-0.07-0.07-0.15-0.15-0.22-0.22C33.63,11.99,28,6.37,22.38,0.74c-0.07-0.07-0.15-0.15-0.22-0.22
		c-0.08-0.09-0.19-0.19-0.13-0.3c0.03-0.05,0.19-0.04,0.29-0.05C22.56,0.17,22.81,0.15,23.03,0.26z"/>
	<path class="st6" d="M16.44,39.65c-0.44,0.02-0.84-0.15-1.25-0.27c-0.13-0.22-0.31-0.39-0.49-0.57C10.19,34.3,5.69,29.8,1.18,25.29
		c-0.18-0.18-0.35-0.36-0.57-0.48c-0.13-0.41-0.27-0.82-0.26-1.26c0.17-0.07,0.28,0.04,0.4,0.13c0.11,0.08,0.2,0.18,0.29,0.27
		c5,5,10,10,15,15.01C16.22,39.15,16.51,39.3,16.44,39.65z"/>
	<path class="st7" d="M39.56,15.98c-0.02,0.06-0.01,0.18-0.12,0.12c-0.1-0.06-0.17-0.16-0.26-0.24C34.17,10.84,29.15,5.83,24.15,0.8
		c-0.08-0.08-0.39-0.14-0.13-0.37c0.39,0.04,0.78,0.11,1.14,0.27c0.07,0.22,0.27,0.35,0.42,0.5c4.4,4.4,8.8,8.81,13.2,13.2
		c0.15,0.15,0.28,0.35,0.5,0.42C39.44,15.2,39.52,15.59,39.56,15.98z"/>
	<path class="st8" d="M39.29,14.84c-0.29,0.11-0.38-0.16-0.52-0.3c-2.81-2.8-5.61-5.61-8.42-8.41c-1.64-1.64-3.29-3.28-4.93-4.93
		c-0.13-0.13-0.36-0.23-0.26-0.49c0.47,0.17,0.99,0.19,1.43,0.44c-0.01,0.18,0.15,0.25,0.25,0.35c3.85,3.86,7.7,7.71,11.56,11.56
		c0.13,0.13,0.26,0.29,0.45,0.35C39.09,13.85,39.16,14.35,39.29,14.84z"/>
	<path class="st9" d="M19.82,0.09c0,0.19,0.15,0.28,0.26,0.39c6.48,6.48,12.96,12.96,19.44,19.44c0.11,0.11,0.21,0.26,0.4,0.25
		c0.05,0.01,0.08,0.04,0.06,0.1c-0.06,0.17,0,0.34-0.04,0.51c-0.16,0.13-0.28,0-0.39-0.08c-0.14-0.09-0.24-0.22-0.36-0.33
		C32.67,13.84,26.14,7.32,19.62,0.8c-0.13-0.13-0.27-0.24-0.36-0.39c-0.07-0.11-0.2-0.24,0.01-0.36C19.45,0.07,19.64,0,19.82,0.09z"
		/>
	<path class="st10" d="M16.44,39.65c-0.08-0.2-0.21-0.35-0.36-0.5C11,34.07,5.92,28.99,0.84,23.91c-0.15-0.15-0.3-0.28-0.5-0.36
		c-0.09-0.16-0.1-0.34-0.09-0.52c-0.05-0.11-0.09-0.23,0.05-0.31c0.11-0.06,0.2,0.02,0.28,0.08c0.12,0.09,0.22,0.2,0.32,0.3
		c5.32,5.32,10.65,10.65,15.97,15.97c0.1,0.1,0.21,0.2,0.31,0.32c0.06,0.08,0.14,0.17,0.08,0.28c-0.07,0.14-0.19,0.1-0.31,0.05
		C16.78,39.74,16.6,39.74,16.44,39.65z"/>
	<path class="st11" d="M21.33,39.92c-0.32,0.11-0.65,0.07-0.98,0.06c-0.02-0.04-0.01-0.08,0.02-0.11c0.1-0.06,0.23-0.11,0.1-0.26
		c-0.07-0.08-0.14-0.15-0.22-0.22c-1.16-1.16-2.37-2.27-3.51-3.45c-0.79-0.82-1.58-1.65-2.39-2.44c-1.8-1.73-3.54-3.52-5.29-5.3
		c-1.73-1.74-3.48-3.46-5.22-5.2c-1.11-1.11-2.27-2.17-3.31-3.34c-0.15-0.17-0.3-0.26-0.52-0.11c-0.01-0.3-0.05-0.59,0.06-0.88
		c0.12-0.1,0.22-0.03,0.32,0.04c0.11,0.08,0.2,0.18,0.29,0.27C7.46,25.76,14.23,32.53,21,39.32C21.16,39.47,21.46,39.59,21.33,39.92
		z"/>
	<path class="st12" d="M19.82,0.09c-0.21,0-0.41,0-0.62,0c-0.13,0.11-0.19,0.23-0.05,0.37c0.09,0.1,0.18,0.19,0.28,0.29
		c6.6,6.6,13.21,13.21,19.81,19.81c0.09,0.09,0.19,0.19,0.29,0.28c0.15,0.14,0.26,0.09,0.37-0.05c0.03-0.17-0.06-0.37,0.08-0.53
		c0.04,0.53-0.04,1.06-0.09,1.59c-0.27,0.02-0.38-0.2-0.53-0.35c-2.8-2.79-5.59-5.59-8.39-8.38c-0.18-0.18-0.34-0.37-0.6-0.44
		c-0.11-0.05-0.17-0.15-0.23-0.26c-0.62-1.04-1.45-1.88-2.48-2.52c-0.09-0.05-0.17-0.11-0.23-0.2c-0.1-0.25-0.3-0.44-0.49-0.63
		c-2.81-2.8-5.61-5.61-8.41-8.42c-0.15-0.15-0.42-0.26-0.31-0.57c0.53-0.07,1.06-0.12,1.6-0.08C19.82,0.04,19.82,0.06,19.82,0.09z"
		/>
	<path class="st13" d="M0.61,24.81c0.29-0.11,0.38,0.15,0.52,0.29c2.36,2.35,4.72,4.71,7.07,7.06c2.24,2.24,4.48,4.48,6.72,6.72
		c0.13,0.13,0.35,0.24,0.27,0.49c-0.44-0.05-0.85-0.18-1.26-0.35c0.01-0.22-0.15-0.34-0.29-0.48c-4.07-4.07-8.13-8.14-12.2-12.2
		c-0.13-0.13-0.26-0.29-0.48-0.29C0.79,25.66,0.67,25.25,0.61,24.81z"/>
	<path class="st14" d="M0.96,26.06c0.01-0.1,0.05-0.19,0.16-0.11c0.12,0.08,0.24,0.18,0.34,0.28c4.1,4.1,8.2,8.2,12.3,12.3
		c0.1,0.1,0.2,0.22,0.28,0.34c0.08,0.12-0.01,0.15-0.11,0.16c-0.43-0.1-0.85-0.23-1.24-0.45c-0.11-0.21-0.29-0.38-0.45-0.54
		c-2.96-2.96-5.92-5.93-8.89-8.88c-0.54-0.54-1.16-1.01-1.65-1.61c-0.11-0.16-0.24-0.3-0.38-0.44C1.14,26.78,1.04,26.43,0.96,26.06z
		"/>
	<path class="st15" d="M16.96,39.74c0.18-0.01,0.37-0.02,0.15-0.26c-0.06-0.07-0.12-0.13-0.19-0.19
		c-5.4-5.4-10.81-10.81-16.21-16.21c-0.06-0.06-0.12-0.13-0.19-0.19c-0.25-0.22-0.25-0.03-0.26,0.15c-0.12-0.22-0.08-0.47-0.09-0.71
		c0.01-0.1,0.02-0.2,0.02-0.24c5.9,5.9,11.81,11.81,17.74,17.74c-0.03,0.04-0.16-0.03-0.26,0C17.43,39.82,17.18,39.85,16.96,39.74z"
		/>
	<path class="st16" d="M18.72,39.92c0.07-0.01,0.14-0.01,0.2-0.02c0.12-0.13,0.31-0.06,0.45-0.14c-0.02-0.18-0.16-0.25-0.26-0.35
		C12.94,33.23,6.77,27.05,0.59,20.88c-0.13-0.13-0.24-0.31-0.46-0.32c-0.04,0-0.08-0.01-0.11-0.03c0-0.24,0-0.47-0.01-0.71
		c0.15-0.13,0.28-0.04,0.39,0.05c0.11,0.08,0.19,0.18,0.29,0.28c6.38,6.38,12.76,12.76,19.15,19.15c0.1,0.1,0.22,0.2,0.3,0.32
		c0.09,0.13,0.14,0.27-0.06,0.36C19.63,39.98,19.17,40.05,18.72,39.92z"/>
	<path class="st17" d="M14.84,0.7c0.31-0.15,0.65-0.18,0.98-0.25c0.3,0.13,0.45,0.43,0.66,0.64c2.38,2.37,4.75,4.74,7.12,7.11
		c0.13,0.13,0.26,0.24,0.36,0.39c0.09,0.13,0.14,0.27-0.05,0.37c-0.35,0.07-0.71,0.06-1.06,0.01c-0.27-0.14-0.42-0.4-0.63-0.61
		c-2.37-2.36-4.73-4.72-7.09-7.09C14.98,1.13,14.71,1.01,14.84,0.7z"/>
	<path class="st18" d="M38.85,13.41c-0.21,0.2-0.28-0.05-0.37-0.14c-0.82-0.81-1.63-1.63-2.45-2.44c-3.08-3.08-6.17-6.16-9.24-9.25
		c-0.1-0.1-0.39-0.18-0.19-0.43c0.43,0.25,0.96,0.23,1.37,0.54c-0.11,0.02-0.11,0.09-0.06,0.16c0.09,0.12,0.18,0.24,0.28,0.34
		c3.21,3.21,6.41,6.42,9.62,9.62c0.13,0.13,0.23,0.4,0.52,0.25C38.55,12.49,38.74,12.93,38.85,13.41z"/>
	<path class="st19" d="M21.33,39.92c0-0.19-0.14-0.28-0.26-0.4c-6.87-6.87-13.73-13.74-20.6-20.6c-0.11-0.11-0.21-0.26-0.4-0.26
		c0.01-0.21,0.02-0.41,0.03-0.62c0.33-0.05,0.47,0.21,0.65,0.39C3.54,21.21,6.32,24,9.1,26.78c0.17,0.17,0.33,0.34,0.53,0.47
		c0.49,0.66,0.9,1.38,1.52,1.94c0.3,0.28,0.68,0.47,0.92,0.82c0.09,0.23,0.28,0.38,0.45,0.54c2.93,2.93,5.86,5.85,8.78,8.79
		c0.15,0.15,0.42,0.26,0.3,0.57C21.5,39.91,21.42,39.91,21.33,39.92z"/>
	<path class="st20" d="M23.99,8.87c-0.01-0.2-0.18-0.3-0.3-0.42c-2.39-2.4-4.79-4.79-7.19-7.19c-0.25-0.25-0.5-0.5-0.68-0.81
		c0.33-0.06,0.65-0.12,0.98-0.18c0.23,0.29,0.49,0.55,0.75,0.81c2.38,2.38,4.76,4.76,7.14,7.14c0.11,0.11,0.24,0.22,0.33,0.36
		c0.1,0.15,0.16,0.3-0.07,0.39C24.62,9.01,24.29,9.11,23.99,8.87z"/>
	<path class="st21" d="M38.83,26.67c-0.02,0.36-0.3,0.63-0.36,0.97c-0.25,0.02-0.35-0.19-0.5-0.32c-1.17-1.12-2.27-2.32-3.45-3.43
		c-0.92-0.87-1.78-1.8-2.68-2.7c-0.26-0.26-0.62-0.41-0.82-0.73c-0.06-0.35-0.06-0.7,0-1.05c0.11-0.24,0.26-0.12,0.4-0.04
		c0.17,0.1,0.29,0.25,0.43,0.39c2.14,2.14,4.28,4.28,6.42,6.42C38.44,26.35,38.62,26.52,38.83,26.67z"/>
	<path class="st22" d="M0.02,19.55c0.08-0.36,0.21-0.36,0.46-0.1c1.35,1.47,2.85,2.79,4.19,4.26c0.28,0.3,0.62,0.55,0.91,0.85
		c1.78,1.82,3.63,3.58,5.38,5.45c0.99,1.05,2.08,2.02,3.1,3.04c2.16,2.15,4.32,4.31,6.47,6.47c0.09,0.09,0.26,0.17,0.22,0.31
		c-0.06,0.17-0.26,0.06-0.39,0.09c-0.32-0.39-0.68-0.73-1.04-1.08C13.07,32.59,6.83,26.35,0.59,20.11
		c-0.17-0.17-0.31-0.37-0.58-0.38C0.01,19.67,0.01,19.61,0.02,19.55z"/>
	<path class="st23" d="M14.84,0.7c0.01,0.22,0.19,0.33,0.32,0.46c2.43,2.43,4.86,4.86,7.29,7.29c0.12,0.12,0.29,0.22,0.3,0.42
		c-0.29,0.24-0.62,0.13-0.95,0.11c-0.29-0.12-0.43-0.4-0.64-0.6c-2.26-2.25-4.51-4.51-6.77-6.76c-0.11-0.11-0.24-0.22-0.33-0.36
		c-0.1-0.14-0.13-0.27,0.06-0.37C14.35,0.8,14.59,0.73,14.84,0.7z"/>
	<path class="st24" d="M30.38,12.63c0.27-0.05,0.4,0.16,0.55,0.31c2.87,2.87,5.73,5.73,8.6,8.6c0.11,0.11,0.24,0.22,0.36,0.33
		c0.03,0.25-0.05,0.48-0.09,0.71c-0.27,0.13-0.37-0.11-0.51-0.24c-1.05-1.04-2.1-2.09-3.14-3.13c-1.55-1.55-3.1-3.09-4.64-4.65
		c-0.24-0.24-0.51-0.45-0.75-0.69C30.63,13.45,30.32,13.1,30.38,12.63z"/>
	<path class="st25" d="M31.12,20.53c0.26,0.08,0.46,0.25,0.65,0.44c0.65,0.66,1.26,1.37,1.94,2c0.82,0.77,1.6,1.57,2.4,2.35
		c0.79,0.77,1.57,1.55,2.35,2.32c-0.08,0.25-0.17,0.5-0.33,0.72c-0.26,0.14-0.38-0.1-0.51-0.23c-1.1-1.08-2.18-2.18-3.27-3.26
		c-1.07-1.06-2.12-2.16-3.22-3.19c-0.06-0.05-0.09-0.11-0.12-0.19C30.99,21.16,30.88,20.83,31.12,20.53z"/>
	<path class="st17" d="M39.53,24.18c-0.06,0.27-0.12,0.53-0.18,0.8c-0.27,0.02-0.38-0.21-0.53-0.35c-2.4-2.39-4.79-4.78-7.18-7.18
		c-0.21-0.21-0.46-0.37-0.62-0.63c-0.06-0.27-0.07-0.55,0-0.82c0.11-0.21,0.25-0.1,0.37-0.03c0.16,0.09,0.27,0.23,0.4,0.35
		c2.46,2.46,4.91,4.91,7.37,7.37C39.31,23.83,39.46,23.97,39.53,24.18z"/>
	<path class="st26" d="M11.27,2.02c0.25-0.17,0.52-0.27,0.8-0.37c2.27,2.28,4.55,4.54,6.81,6.82C19,8.6,19.28,8.72,19.01,8.97
		c-0.35,0.07-0.7,0.06-1.06,0.01c-0.27-0.14-0.42-0.41-0.63-0.61c-1.9-1.89-3.79-3.78-5.68-5.68C11.46,2.5,11.2,2.35,11.27,2.02z"/>
	<path class="st27" d="M25.05,8.91c0.01-0.23-0.17-0.33-0.31-0.46c-2.55-2.55-5.1-5.11-7.65-7.66c-0.14-0.14-0.33-0.26-0.3-0.51
		c0.23-0.07,0.47-0.12,0.71-0.09c0.19,0.15,0.35,0.32,0.51,0.49c2.58,2.58,5.16,5.16,7.74,7.74c0.14,0.14,0.29,0.26,0.39,0.42
		c0.07,0.12,0.2,0.25,0.01,0.38C25.77,9.17,25.36,9.22,25.05,8.91z"/>
	<path class="st28" d="M30.86,13.87c0.21,0.09,0.36,0.25,0.52,0.4c2.66,2.66,5.31,5.32,7.97,7.97c0.13,0.13,0.23,0.32,0.45,0.33
		c0.02,0.22-0.03,0.42-0.09,0.62c-0.11,0.2-0.25,0.1-0.37,0.03c-0.16-0.09-0.27-0.23-0.4-0.35c-2.51-2.51-5.02-5.02-7.53-7.52
		c-0.21-0.21-0.41-0.43-0.49-0.72C30.88,14.38,30.69,14.14,30.86,13.87z"/>
	<path class="st29" d="M1.77,27.47c0.46,0.56,1.04,1.01,1.55,1.52c3.05,3.03,6.08,6.07,9.12,9.11c0.13,0.13,0.36,0.23,0.26,0.49
		c-0.38-0.09-0.73-0.24-1.06-0.45c-3.24-3.22-6.47-6.45-9.69-9.69c-0.03-0.03-0.07-0.06-0.1-0.08c-0.17-0.24-0.27-0.52-0.34-0.81
		c-0.05-0.06-0.06-0.14,0.01-0.17C1.61,27.33,1.69,27.42,1.77,27.47z"/>
	<path class="st30" d="M38.83,26.67c-0.24,0.12-0.31-0.11-0.42-0.22c-2.26-2.25-4.51-4.5-6.77-6.76c-0.16-0.16-0.31-0.31-0.52-0.4
		c-0.23-0.26-0.13-0.57-0.11-0.86c0.09-0.23,0.24-0.18,0.39-0.07c0.13,0.09,0.24,0.22,0.36,0.33c2.1,2.1,4.2,4.2,6.3,6.3
		c0.33,0.33,0.66,0.68,1.02,0.98C38.99,26.19,38.91,26.43,38.83,26.67z"/>
	<path class="st20" d="M31.03,14.67c0.09,0.2,0.22,0.37,0.38,0.53c2.58,2.57,5.15,5.14,7.72,7.71c0.16,0.15,0.28,0.41,0.58,0.29
		c-0.04,0.33-0.07,0.66-0.18,0.97c-0.33-0.32-0.66-0.63-0.99-0.96c-2.3-2.3-4.6-4.6-6.91-6.91c-0.16-0.16-0.32-0.31-0.52-0.4
		C30.92,15.51,30.85,15.1,31.03,14.67z"/>
	<path class="st31" d="M26.22,9.15c-0.08-0.21-0.24-0.37-0.4-0.53c-2.66-2.66-5.33-5.32-7.99-7.99c-0.13-0.13-0.32-0.23-0.33-0.45
		c0.23-0.07,0.47-0.11,0.71-0.08c0.02,0.22,0.2,0.32,0.33,0.45c2.87,2.87,5.74,5.74,8.6,8.61c0.14,0.14,0.34,0.26,0.31,0.51
		C26.98,9.65,26.57,9.48,26.22,9.15z"/>
	<path class="st32" d="M1.84,28.36c0.19-0.02,0.29,0.13,0.4,0.24c3.05,3.04,6.09,6.09,9.14,9.14c0.11,0.11,0.26,0.2,0.26,0.39
		c-0.66-0.25-1.28-0.59-1.87-0.98c-0.04-0.13-0.15-0.22-0.24-0.31c-2.26-2.27-4.52-4.53-6.8-6.79C2.36,29.52,2.09,28.95,1.84,28.36z
		"/>
	<path class="st33" d="M19.1,8.87c-1.01-1.02-2.01-2.04-3.02-3.05c-1.23-1.24-2.47-2.47-3.7-3.7c-0.13-0.13-0.31-0.24-0.31-0.46
		c0.19-0.13,0.4-0.2,0.62-0.26c0.17,0.05,0.27,0.18,0.38,0.29c2.18,2.18,4.36,4.36,6.54,6.54c0.09,0.09,0.2,0.18,0.27,0.3
		c0.1,0.16,0.16,0.33-0.07,0.44C19.57,9.01,19.32,9.08,19.1,8.87z"/>
	<path class="st34" d="M11.27,2.02c0.08,0.23,0.25,0.4,0.42,0.56c1.96,1.95,3.91,3.91,5.86,5.87c0.12,0.12,0.29,0.22,0.3,0.42
		c-0.29,0.24-0.63,0.13-0.95,0.11c-0.28-0.12-0.43-0.4-0.64-0.6c-1.81-1.8-3.62-3.61-5.42-5.42c-0.15-0.15-0.41-0.28-0.29-0.58
		C10.8,2.26,11.04,2.14,11.27,2.02z"/>
	<path class="st35" d="M23.28,39.71c-0.23,0.04-0.46,0.12-0.71,0.1c-0.19-0.14-0.35-0.32-0.51-0.49c-2.61-2.61-5.22-5.22-7.83-7.84
		c-0.18-0.18-0.48-0.33-0.34-0.68c0.29-0.05,0.56,0.04,0.83,0.14c0.16,0.08,0.28,0.22,0.4,0.35c2.59,2.59,5.18,5.18,7.77,7.77
		C23.07,39.24,23.33,39.39,23.28,39.71z"/>
	<path class="st30" d="M14.12,0.9c-0.18,0.27,0.08,0.37,0.21,0.5c2.35,2.35,4.7,4.7,7.05,7.06c0.12,0.12,0.29,0.22,0.3,0.42
		c-0.23,0.21-0.51,0.13-0.78,0.11c-0.32-0.12-0.47-0.44-0.69-0.67c-2.2-2.19-4.4-4.38-6.58-6.58c-0.15-0.15-0.42-0.26-0.3-0.57
		C13.58,1.05,13.84,0.95,14.12,0.9z"/>
	<path class="st36" d="M1.33,12.89c0.05-0.23,0.12-0.45,0.26-0.64c2.4,2.39,4.79,4.78,7.18,7.18c0.08,0.08,0.16,0.17,0.2,0.29
		c0.05,0.23,0.06,0.45-0.01,0.67c-0.12,0.18-0.25,0.1-0.38,0.01c-0.11-0.08-0.2-0.18-0.29-0.27c-2.22-2.22-4.44-4.44-6.65-6.66
		C1.47,13.31,1.22,13.19,1.33,12.89z"/>
	<path class="st36" d="M27.75,38.41c-0.2,0.13-0.41,0.21-0.64,0.26c-0.21,0.1-0.33-0.05-0.45-0.17c-2.31-2.31-4.63-4.62-6.93-6.93
		c-0.13-0.13-0.36-0.27-0.12-0.51c0.22-0.08,0.45-0.07,0.67-0.02c0.12,0.03,0.21,0.11,0.29,0.2C22.96,33.62,25.36,36.01,27.75,38.41
		z"/>
	<path class="st37" d="M9.58,27.29c-0.22-0.02-0.32-0.2-0.45-0.33c-2.84-2.83-5.67-5.67-8.51-8.5c-0.16-0.16-0.31-0.31-0.52-0.4
		c-0.03-0.22,0.05-0.42,0.08-0.63c0.27-0.13,0.37,0.11,0.5,0.24c0.97,0.95,1.93,1.92,2.89,2.88c1.59,1.59,3.18,3.18,4.76,4.76
		c0.28,0.28,0.56,0.56,0.88,0.81C9.39,26.49,9.64,26.84,9.58,27.29z"/>
	<path class="st37" d="M13.86,30.86c0.09,0.21,0.24,0.37,0.4,0.52c2.66,2.66,5.32,5.32,7.98,7.98c0.13,0.13,0.32,0.23,0.33,0.45
		c-0.23,0.04-0.46,0.12-0.71,0.09c-0.15-0.2-0.33-0.38-0.5-0.56c-2.79-2.79-5.57-5.57-8.35-8.36c-0.15-0.15-0.47-0.27-0.28-0.6
		C13.15,30.44,13.56,30.51,13.86,30.86z"/>
	<path class="st35" d="M9.14,26.13c-0.21-0.09-0.37-0.24-0.52-0.4c-2.66-2.66-5.32-5.32-7.98-7.98c-0.13-0.13-0.23-0.32-0.45-0.33
		c-0.03-0.24,0.05-0.47,0.1-0.71c0.27-0.02,0.38,0.21,0.53,0.35c2.53,2.52,5.06,5.05,7.59,7.59c0.23,0.23,0.51,0.4,0.67,0.7
		C9.14,25.61,9.29,25.86,9.14,26.13z"/>
	<path class="st38" d="M10.56,2.38c0.01,0.22,0.18,0.33,0.32,0.46c1.87,1.87,3.74,3.74,5.61,5.62c0.12,0.12,0.29,0.22,0.3,0.42
		C16.53,9.1,16.23,9,15.94,8.99c-0.33-0.12-0.47-0.44-0.69-0.66c-1.69-1.68-3.37-3.36-5.05-5.05c-0.14-0.14-0.35-0.25-0.32-0.5
		C10.1,2.64,10.33,2.51,10.56,2.38z"/>
	<path class="st38" d="M37.57,29.51c-0.12,0.21-0.24,0.41-0.36,0.62c-0.25,0.02-0.36-0.19-0.5-0.32c-1.69-1.68-3.37-3.36-5.05-5.05
		c-0.22-0.22-0.51-0.36-0.65-0.65c-0.05-0.27-0.06-0.55,0.01-0.82c0.11-0.2,0.25-0.09,0.37-0.02c0.16,0.09,0.27,0.23,0.4,0.35
		c1.8,1.8,3.6,3.6,5.4,5.4C37.35,29.16,37.51,29.3,37.57,29.51z"/>
	<path class="st39" d="M13.33,1.17c0.01,0.2,0.18,0.3,0.3,0.42c2.25,2.26,4.51,4.51,6.76,6.77c0.16,0.16,0.31,0.32,0.4,0.52
		c-0.3,0.21-0.59,0.21-0.89,0c0.03-0.25-0.16-0.37-0.3-0.51c-2.19-2.19-4.38-4.38-6.56-6.57c-0.12-0.12-0.23-0.27-0.34-0.4
		C12.89,1.29,13.1,1.2,13.33,1.17z"/>
	<path class="st40" d="M2.73,30.05c0.19-0.02,0.29,0.13,0.4,0.25c2.16,2.16,4.33,4.32,6.48,6.49c0.09,0.09,0.33,0.16,0.15,0.37
		c-0.87-0.44-1.63-1.04-2.39-1.65c-1.81-1.45-3.27-3.2-4.51-5.14C2.8,30.28,2.78,30.16,2.73,30.05z"/>
	<path class="st41" d="M9.86,2.78c1.85,1.86,3.7,3.72,5.55,5.57c0.16,0.16,0.31,0.32,0.4,0.52c-0.2,0.21-0.46,0.12-0.69,0.13
		c-0.17-0.01-0.3-0.09-0.42-0.22c-1.68-1.73-3.41-3.42-5.11-5.13C9.45,3.51,9.2,3.4,9.33,3.11C9.48,2.96,9.66,2.85,9.86,2.78z"/>
	<path class="st41" d="M31.12,24.18c0.21,0.09,0.37,0.25,0.52,0.4c1.74,1.74,3.48,3.48,5.22,5.22c0.11,0.11,0.24,0.22,0.36,0.33
		c-0.08,0.2-0.19,0.38-0.34,0.54c-0.29,0.13-0.4-0.12-0.54-0.26c-1.55-1.54-3.1-3.09-4.65-4.64c-0.15-0.15-0.29-0.3-0.45-0.43
		c-0.14-0.12-0.24-0.26-0.25-0.45C31,24.64,30.91,24.38,31.12,24.18z"/>
	<path class="st42" d="M31.12,16.89c0.2,0.01,0.3,0.18,0.42,0.3c2.49,2.48,4.97,4.97,7.46,7.45c0.11,0.11,0.24,0.22,0.36,0.33
		c0.04,0.18-0.18,0.27-0.15,0.45c-0.31,0.07-0.45-0.17-0.62-0.34c-1.73-1.72-3.46-3.46-5.19-5.18c-0.76-0.75-1.49-1.53-2.28-2.25
		c-0.04-0.04-0.07-0.09-0.09-0.15C30.98,17.29,30.93,17.07,31.12,16.89z"/>
	<path class="st43" d="M31.12,17.6c0.2,0.01,0.3,0.18,0.42,0.3c2.37,2.36,4.73,4.73,7.1,7.1c0.17,0.17,0.33,0.34,0.56,0.42
		c0.02,0.19-0.06,0.36-0.12,0.53c-0.25,0.03-0.36-0.17-0.51-0.31c-2.35-2.34-4.69-4.69-7.03-7.03c-0.12-0.12-0.22-0.29-0.42-0.3
		C30.92,18.07,30.92,17.84,31.12,17.6z"/>
	<path class="st44" d="M7.27,4.6c0.18-0.2,0.4-0.36,0.63-0.5c1.4,1.35,2.75,2.75,4.14,4.11c0.26,0.26,0.52,0.52,0.78,0.78
		c0.12,0.13,0.25,0.26,0.2,0.46c-0.19,0.24-0.43,0.38-0.74,0.37C10.68,8.21,9.07,6.61,7.47,5C7.37,4.9,7.2,4.8,7.27,4.6z"/>
	<path class="st45" d="M31.12,21.6c0.2,0.01,0.3,0.18,0.42,0.3c2.05,2.04,4.09,4.09,6.14,6.13c0.13,0.13,0.23,0.31,0.46,0.32
		c-0.02,0.24-0.21,0.4-0.29,0.62c-0.25,0.03-0.36-0.18-0.5-0.32c-1.92-1.91-3.84-3.83-5.75-5.75c-0.2-0.2-0.45-0.34-0.58-0.6
		C30.98,22.06,30.91,21.81,31.12,21.6z"/>
	<path class="st46" d="M19.55,31.12c0.01,0.19,0.16,0.28,0.27,0.39c2.3,2.3,4.59,4.6,6.89,6.89c0.11,0.11,0.2,0.26,0.39,0.26
		c-0.15,0.11-0.33,0.17-0.51,0.19c-0.23,0.09-0.36-0.07-0.5-0.2c-2.36-2.36-4.73-4.72-7.08-7.09c-0.14-0.14-0.39-0.3-0.1-0.53
		C19.14,30.98,19.36,30.94,19.55,31.12z"/>
	<path class="st47" d="M1.33,12.89c0,0.19,0.15,0.28,0.26,0.39c2.3,2.3,4.59,4.6,6.89,6.89c0.11,0.11,0.2,0.26,0.39,0.27
		c0.18,0.18,0.14,0.4,0.09,0.62c-0.1,0.21-0.24,0.11-0.37,0.04c-0.14-0.08-0.25-0.2-0.37-0.32c-2.26-2.26-4.53-4.53-6.79-6.8
		c-0.16-0.16-0.4-0.29-0.3-0.59C1.15,13.22,1.21,13.04,1.33,12.89z"/>
	<path class="st48" d="M7.27,4.6C7.39,4.73,7.49,4.87,7.62,5c1.45,1.45,2.9,2.9,4.35,4.35c0.13,0.13,0.3,0.25,0.31,0.47
		c-0.12,0.29-0.34,0.42-0.65,0.42c-1.53-1.56-3.09-3.1-4.63-4.65c-0.13-0.13-0.3-0.24-0.35-0.44C6.82,4.93,7.03,4.75,7.27,4.6z"/>
	<path class="st48" d="M35.39,32.72c-0.15,0.24-0.33,0.45-0.55,0.63c-0.17-0.04-0.27-0.18-0.38-0.29c-1.45-1.45-2.9-2.9-4.35-4.35
		c-0.13-0.13-0.29-0.26-0.33-0.46c0.01-0.24,0.15-0.41,0.31-0.56c0.22-0.1,0.37,0.02,0.51,0.16c1.55,1.54,3.1,3.09,4.64,4.64
		C35.32,32.56,35.38,32.63,35.39,32.72z"/>
	<path class="st49" d="M29.85,28.24c0.11,0.13,0.22,0.28,0.34,0.4c1.45,1.45,2.9,2.9,4.34,4.35c0.11,0.11,0.21,0.24,0.31,0.37
		c-0.15,0.22-0.34,0.42-0.55,0.59c-0.78-0.72-1.51-1.49-2.26-2.24c-0.81-0.8-1.61-1.6-2.41-2.41c-0.12-0.12-0.27-0.23-0.33-0.41
		C29.39,28.59,29.52,28.33,29.85,28.24z"/>
	<path class="st49" d="M6.64,5.15c0.14,0.13,0.3,0.24,0.43,0.38c1.42,1.42,2.84,2.84,4.26,4.26c0.12,0.12,0.29,0.22,0.3,0.42
		c-0.09,0.26-0.25,0.44-0.54,0.49c-0.14-0.05-0.24-0.17-0.34-0.27C9.22,8.9,7.7,7.36,6.16,5.83c-0.04-0.04-0.08-0.09-0.1-0.14
		C6.23,5.48,6.42,5.3,6.64,5.15z"/>
	<path class="st50" d="M8.96,25.33c-2.83-2.82-5.65-5.63-8.48-8.45c-0.06-0.06-0.13-0.12-0.2-0.17c0.03-0.18,0.06-0.35,0.09-0.53
		c0.21-0.03,0.31,0.14,0.43,0.26c2.63,2.63,5.26,5.25,7.89,7.88c0.1,0.1,0.21,0.21,0.27,0.35C9.01,24.9,9.16,25.12,8.96,25.33z"/>
	<path class="st34" d="M31.12,22.4c0.2,0.01,0.3,0.18,0.42,0.3c1.98,1.98,3.97,3.96,5.95,5.94c0.11,0.11,0.24,0.22,0.36,0.33
		c-0.09,0.18-0.18,0.36-0.27,0.53c-1.98-1.97-3.95-3.94-5.93-5.91c-0.16-0.16-0.31-0.31-0.52-0.4
		C30.91,22.93,30.91,22.67,31.12,22.4z"/>
	<path class="st44" d="M35.39,32.72c-0.13-0.11-0.28-0.22-0.4-0.35c-1.45-1.45-2.91-2.9-4.36-4.36c-0.13-0.13-0.24-0.31-0.47-0.29
		c-0.05-0.34,0.15-0.55,0.37-0.75c0.21-0.02,0.32,0.14,0.44,0.26c1.53,1.52,3.05,3.05,4.58,4.58c0.1,0.1,0.21,0.21,0.25,0.36
		C35.72,32.4,35.57,32.57,35.39,32.72z"/>
	<path class="st51" d="M33.44,34.77c-0.14,0.17-0.3,0.32-0.49,0.43c-0.2,0.12-0.31-0.04-0.41-0.15c-1.53-1.52-3.06-3.05-4.59-4.59
		c-0.09-0.09-0.19-0.19-0.19-0.34c0.11-0.25,0.32-0.35,0.56-0.4c0.18,0.01,0.29,0.14,0.4,0.25c1.49,1.49,2.99,2.98,4.48,4.48
		C33.31,34.54,33.41,34.63,33.44,34.77z"/>
	<path class="st51" d="M4.8,7.04c0.11-0.19,0.26-0.35,0.43-0.49C5.39,6.6,5.49,6.73,5.61,6.84c1.45,1.45,2.9,2.9,4.34,4.35
		c0.13,0.13,0.29,0.25,0.32,0.46c-0.04,0.25-0.15,0.46-0.39,0.57c-0.17,0.01-0.27-0.1-0.37-0.21C7.99,10.51,6.48,9,4.97,7.48
		C4.86,7.36,4.68,7.25,4.8,7.04z"/>
	<path class="st52" d="M33.44,34.77c-0.13-0.11-0.28-0.22-0.4-0.34c-1.45-1.44-2.89-2.89-4.34-4.33c-0.11-0.11-0.24-0.21-0.37-0.32
		c0.05-0.3,0.3-0.39,0.54-0.49c0.2,0.01,0.31,0.16,0.43,0.28c1.44,1.44,2.88,2.87,4.31,4.32c0.13,0.13,0.38,0.23,0.24,0.5
		C33.72,34.51,33.58,34.64,33.44,34.77z"/>
	<path class="st52" d="M10.22,11.65c-0.19-0.3-0.48-0.52-0.73-0.77c-1.3-1.31-2.62-2.62-3.92-3.93c-0.12-0.12-0.23-0.27-0.34-0.4
		c0.13-0.14,0.26-0.27,0.39-0.41c0.2-0.13,0.3,0.04,0.41,0.15c1.5,1.49,2.99,2.98,4.49,4.48c0.09,0.09,0.19,0.19,0.19,0.34
		C10.6,11.34,10.54,11.61,10.22,11.65z"/>
	<path class="st53" d="M35.8,32.18c-1.61-1.6-3.22-3.2-4.83-4.79c-0.13-0.13-0.25-0.3-0.43-0.37c-0.1-0.3,0.05-0.52,0.23-0.72
		c0.17-0.01,0.26,0.12,0.36,0.22c1.69,1.66,3.33,3.36,5.04,5.01c0.03,0.03,0.05,0.08,0.05,0.12C36.13,31.85,35.97,32.02,35.8,32.18z
		"/>
	<path class="st53" d="M12.98,9.45c0-0.22-0.18-0.33-0.31-0.46C11.18,7.5,9.69,6.01,8.2,4.52C8.08,4.4,7.91,4.3,7.91,4.1
		C8,3.97,8.13,3.88,8.27,3.83c0.2-0.12,0.3,0.04,0.41,0.14c1.58,1.57,3.16,3.14,4.73,4.73c0.15,0.15,0.32,0.33,0.19,0.58
		C13.41,9.41,13.23,9.56,12.98,9.45z"/>
	<path class="st54" d="M2.3,10.74c0.05-0.19,0.14-0.36,0.27-0.51c0.23,0.31,0.51,0.58,0.78,0.85c1.74,1.74,3.48,3.48,5.22,5.22
		c0.15,0.15,0.32,0.27,0.39,0.48c0.05,0.2,0.06,0.4-0.01,0.6c-0.26,0.2-0.37-0.07-0.49-0.19c-0.78-0.76-1.55-1.54-2.32-2.31
		c-1.19-1.19-2.38-2.38-3.57-3.57C2.41,11.14,2.18,11.02,2.3,10.74z"/>
	<path class="st54" d="M29.77,37.42c-0.15,0.13-0.32,0.23-0.51,0.27c-0.21,0.1-0.33-0.05-0.46-0.17c-2.02-2.01-4.03-4.02-6.04-6.04
		c-0.11-0.11-0.31-0.22-0.14-0.43c0.2-0.08,0.4-0.07,0.6-0.02c0.2,0.07,0.33,0.24,0.48,0.39c1.74,1.74,3.49,3.48,5.23,5.23
		C29.19,36.92,29.46,37.19,29.77,37.42z"/>
	<path class="st55" d="M3.01,9.49c0.08-0.21,0.2-0.39,0.35-0.55c1.46,1.46,2.92,2.92,4.38,4.39c0.43,0.43,0.86,0.85,1.29,1.28
		c0.08,0.23,0.03,0.44-0.09,0.65c-0.28,0.16-0.44-0.07-0.59-0.23c-0.67-0.65-1.32-1.31-1.98-1.97C5.34,12.03,4.3,11,3.28,9.96
		C3.15,9.83,2.95,9.73,3.01,9.49z"/>
	<path class="st50" d="M23.28,39.71c-0.09-0.21-0.25-0.37-0.4-0.52c-2.6-2.6-5.2-5.19-7.79-7.79c-0.11-0.11-0.22-0.24-0.33-0.36
		c0.22-0.19,0.44-0.04,0.65,0c0.57,0.56,1.13,1.13,1.69,1.69c2.12,2.12,4.24,4.24,6.36,6.37c0.15,0.15,0.37,0.26,0.36,0.53
		C23.63,39.65,23.46,39.68,23.28,39.71z"/>
	<path class="st56" d="M8.88,24.62c-0.13-0.12-0.27-0.23-0.39-0.36c-2.59-2.58-5.17-5.17-7.75-7.75c-0.11-0.11-0.24-0.22-0.36-0.33
		c0.02-0.2,0.04-0.39,0.14-0.57c2.6,2.6,5.2,5.2,7.8,7.81c0.22,0.22,0.48,0.39,0.65,0.66C9,24.27,9.04,24.46,8.88,24.62z"/>
	<path class="st57" d="M31.1,24.96c0.05,0.26,0.3,0.35,0.47,0.51c1.62,1.64,3.26,3.27,4.89,4.9c0.12,0.12,0.22,0.29,0.42,0.3
		c-0.08,0.2-0.19,0.38-0.35,0.54c-0.2,0.06-0.3-0.1-0.4-0.21c-1.64-1.63-3.28-3.27-4.91-4.91c-0.16-0.16-0.3-0.33-0.31-0.57
		C30.92,25.32,30.82,25.07,31.1,24.96z"/>
	<path class="st56" d="M23.81,39.62c-1.23-1.24-2.46-2.48-3.69-3.71c-1.45-1.46-2.91-2.91-4.36-4.36c-0.12-0.12-0.29-0.22-0.3-0.42
		c0.13-0.14,0.3-0.12,0.46-0.09c0.25,0.16,0.42,0.41,0.62,0.62c2.34,2.33,4.68,4.67,7.02,7.01c0.28,0.28,0.56,0.56,0.88,0.8
		C24.25,39.58,24.03,39.59,23.81,39.62z"/>
	<path class="st57" d="M9.33,3.11c0,0.13,0.08,0.21,0.17,0.3c1.8,1.82,3.61,3.63,5.41,5.44c0.03,0.03,0.08,0.03,0.13,0.04
		c-0.11,0.28-0.35,0.17-0.55,0.2c-0.24-0.01-0.41-0.15-0.57-0.31C12.27,7.14,10.64,5.51,9,3.87c-0.11-0.11-0.27-0.2-0.21-0.4
		C8.95,3.31,9.13,3.2,9.33,3.11z"/>
	<path class="st58" d="M8.87,19.64C8.31,19.1,7.75,18.55,7.2,18c-1.77-1.76-3.53-3.53-5.29-5.3c-0.13-0.13-0.31-0.24-0.32-0.46
		c0.02-0.16,0.09-0.3,0.19-0.42c1.13,1.09,2.21,2.21,3.33,3.31c1.26,1.24,2.49,2.53,3.77,3.74c0.04,0.04,0.07,0.09,0.09,0.15
		C9,19.24,9.05,19.46,8.87,19.64z"/>
	<path class="st58" d="M27.75,38.41c-0.17,0-0.26-0.12-0.37-0.22c-2.31-2.31-4.62-4.62-6.92-6.93c-0.04-0.04-0.07-0.09-0.11-0.14
		c0.18-0.18,0.4-0.13,0.62-0.1c0.26,0.13,0.4,0.38,0.6,0.58c2.18,2.16,4.34,4.35,6.53,6.51c0.03,0.03,0.06,0.07,0.08,0.11
		C28.03,38.28,27.89,38.35,27.75,38.41z"/>
	<path class="st59" d="M10.66,11.1C9.05,9.48,7.45,7.87,5.84,6.25C5.78,6.19,5.71,6.14,5.61,6.14c0.12-0.18,0.26-0.33,0.44-0.45
		c0.13,0,0.21,0.09,0.29,0.18c1.54,1.54,3.09,3.08,4.63,4.63c0.05,0.05,0.09,0.12,0.13,0.18C11.08,10.94,10.96,11.11,10.66,11.1z"/>
	<path class="st59" d="M33.85,34.38c0.01-0.14-0.09-0.21-0.17-0.29c-1.54-1.54-3.09-3.09-4.63-4.63c-0.05-0.05-0.12-0.09-0.18-0.13
		c0.02-0.28,0.17-0.43,0.45-0.44c0.42,0.31,0.75,0.71,1.11,1.07c1.19,1.18,2.38,2.37,3.57,3.57c0.12,0.12,0.29,0.21,0.3,0.42
		C34.19,34.12,34.04,34.27,33.85,34.38z"/>
	<path class="st60" d="M8.97,14.58c-0.19,0-0.28-0.15-0.39-0.27c-1.65-1.64-3.29-3.29-4.93-4.93C3.52,9.26,3.37,9.15,3.36,8.95
		c0.05-0.16,0.16-0.3,0.28-0.41c0.21,0.04,0.31,0.21,0.45,0.35c1.44,1.43,2.87,2.86,4.3,4.3c0.26,0.26,0.51,0.53,0.81,0.74
		C9.19,14.16,9.23,14.43,8.97,14.58z"/>
	<path class="st61" d="M8.87,16.71c-0.92-0.91-1.85-1.82-2.77-2.74c-1.09-1.08-2.17-2.17-3.26-3.26c-0.13-0.13-0.3-0.25-0.26-0.48
		c0.03-0.11,0.07-0.21,0.16-0.28c0.26-0.06,0.36,0.16,0.49,0.3c1.73,1.72,3.45,3.43,5.16,5.16c0.2,0.2,0.45,0.34,0.58,0.6
		C9,16.25,9.07,16.5,8.87,16.71z"/>
	<path class="st62" d="M29.77,37.42c-0.16,0.02-0.28-0.06-0.39-0.17c-2.01-2.02-4.03-4.04-6.05-6.06c-0.02-0.02-0.03-0.05-0.05-0.07
		c0.21-0.2,0.46-0.13,0.7-0.1c0.26,0.12,0.4,0.38,0.6,0.58c1.73,1.71,3.45,3.44,5.16,5.16c0.14,0.14,0.36,0.24,0.3,0.5
		C29.97,37.35,29.88,37.4,29.77,37.42z"/>
	<path class="st63" d="M0.61,15.19c0-0.13-0.01-0.25,0.09-0.35c0.24,0.32,0.52,0.6,0.8,0.88c2.26,2.26,4.52,4.52,6.78,6.78
		c0.22,0.22,0.46,0.41,0.66,0.65C9,23.3,9,23.45,8.94,23.6c-0.08,0.12-0.18,0.06-0.27,0.01c-0.19-0.09-0.34-0.24-0.48-0.38
		c-2.41-2.41-4.83-4.83-7.24-7.24C0.72,15.77,0.49,15.55,0.61,15.19z"/>
	<path class="st64" d="M31,25.57c0.01,0.14,0.09,0.24,0.19,0.34c1.73,1.73,3.46,3.46,5.19,5.19c0.04,0.04,0.1,0.07,0.14,0.1
		c-0.1,0.15-0.2,0.29-0.3,0.44c-0.12-0.08-0.26-0.15-0.36-0.25c-1.63-1.63-3.26-3.26-4.89-4.89c-0.06-0.06-0.1-0.14-0.16-0.21
		C30.7,26,30.73,25.76,31,25.57z"/>
	<path class="st65" d="M8.87,23.11c-0.19-0.01-0.28-0.16-0.39-0.27c-2.5-2.5-5-4.99-7.49-7.49c-0.15-0.15-0.32-0.27-0.29-0.52
		c0-0.1,0-0.2,0.08-0.28c0.19,0.04,0.29,0.2,0.41,0.32c2.47,2.47,4.94,4.94,7.41,7.41c0.13,0.13,0.29,0.25,0.36,0.45
		C8.99,22.87,9,23.01,8.87,23.11z"/>
	<path class="st65" d="M25.44,39.22c-0.08,0.08-0.18,0.08-0.29,0.08c-0.33,0.13-0.49-0.11-0.67-0.3c-1.72-1.71-3.43-3.43-5.15-5.14
		c-0.74-0.74-1.49-1.48-2.22-2.23c-0.14-0.14-0.39-0.27-0.22-0.55c0.12-0.07,0.25-0.07,0.39-0.03c0.19,0.07,0.3,0.23,0.44,0.36
		c2.46,2.45,4.91,4.91,7.37,7.37C25.22,38.91,25.39,39.01,25.44,39.22z"/>
	<path class="st66" d="M28.9,37.88c-0.1,0.09-0.22,0.16-0.36,0.17c-0.21,0.1-0.34-0.04-0.46-0.17c-2.11-2.11-4.23-4.22-6.33-6.34
		c-0.13-0.13-0.31-0.26-0.14-0.48c0.15-0.08,0.3-0.07,0.46-0.03c0.17,0.06,0.29,0.2,0.41,0.33c2.03,2.03,4.07,4.07,6.1,6.1
		C28.71,37.59,28.86,37.69,28.9,37.88z"/>
	<path class="st67" d="M1.14,13.4c0,0.2,0.16,0.31,0.29,0.43c2.32,2.32,4.63,4.64,6.95,6.95c0.15,0.15,0.3,0.28,0.49,0.37
		c0.15,0.13,0.13,0.29,0.08,0.46c-0.12,0.2-0.26,0.08-0.38,0.01c-0.14-0.08-0.25-0.21-0.36-0.32c-2.31-2.31-4.63-4.62-6.94-6.94
		C1.15,14.24,1,14.13,0.96,13.95C0.98,13.75,1.03,13.57,1.14,13.4z"/>
	<path class="st68" d="M18.84,31.12c0.01,0.19,0.16,0.28,0.27,0.39c2.35,2.35,4.7,4.71,7.06,7.06c0.12,0.12,0.23,0.28,0.43,0.28
		c-0.17,0.11-0.35,0.16-0.55,0.18c-0.17-0.04-0.27-0.17-0.38-0.29c-2.33-2.33-4.66-4.66-7-6.99c-0.1-0.1-0.22-0.2-0.29-0.33
		c-0.07-0.12-0.19-0.26,0-0.38C18.54,30.99,18.7,30.97,18.84,31.12z"/>
	<path class="st69" d="M31.46,36.36c-0.11,0.12-0.25,0.22-0.41,0.28c-0.21,0.09-0.34-0.03-0.47-0.16c-1.68-1.67-3.35-3.35-5.02-5.02
		c-0.12-0.12-0.26-0.25-0.17-0.46c0.19-0.19,0.43-0.2,0.68-0.19c0.16,0.34,0.42,0.59,0.68,0.85C28.33,33.21,29.91,34.77,31.46,36.36
		z"/>
	<path class="st64" d="M8.79,3.46c0.23,0.25,0.46,0.5,0.69,0.74c1.49,1.49,2.98,2.98,4.47,4.47c0.13,0.13,0.24,0.31,0.46,0.32
		c-0.22,0.29-0.5,0.32-0.82,0.23c-0.03-0.22-0.17-0.37-0.32-0.52c-1.55-1.55-3.1-3.09-4.64-4.64c-0.1-0.1-0.19-0.24-0.36-0.24
		C8.42,3.67,8.6,3.55,8.79,3.46z"/>
	<path class="st70" d="M32.18,35.82c-0.12,0.16-0.29,0.26-0.46,0.35c-0.16,0.11-0.24-0.04-0.32-0.12c-1.57-1.6-3.17-3.17-4.75-4.77
		c-0.15-0.15-0.37-0.28-0.28-0.55c0.14-0.16,0.32-0.23,0.53-0.2C28.66,32.3,30.43,34.05,32.18,35.82z"/>
	<path class="st71" d="M8.87,18.93c-0.19-0.01-0.28-0.16-0.39-0.27c-2.15-2.15-4.3-4.3-6.45-6.45c-0.11-0.11-0.26-0.2-0.26-0.39
		c0.02-0.14,0.07-0.27,0.17-0.37c2.13,2.12,4.25,4.24,6.37,6.36c0.22,0.22,0.48,0.4,0.65,0.66C9,18.64,9.02,18.8,8.87,18.93z"/>
	<path class="st71" d="M21.59,31.12c0.01,0.19,0.16,0.28,0.27,0.39c2.08,2.09,4.17,4.17,6.25,6.25c0.12,0.12,0.23,0.28,0.43,0.29
		c-0.11,0.1-0.23,0.15-0.37,0.17c-0.19,0-0.28-0.15-0.39-0.26c-2.15-2.15-4.3-4.3-6.45-6.45c-0.11-0.11-0.26-0.2-0.27-0.39
		C21.24,30.96,21.42,30.96,21.59,31.12z"/>
	<path class="st72" d="M8.87,15.91c-0.2-0.01-0.3-0.18-0.42-0.3c-1.77-1.77-3.55-3.54-5.32-5.32c-0.12-0.12-0.26-0.23-0.4-0.35
		c0.03-0.19,0.15-0.32,0.27-0.45c0.1,0.12,0.2,0.25,0.32,0.37C5,11.54,6.68,13.22,8.35,14.9c0.16,0.16,0.31,0.31,0.53,0.39
		C9.04,15.5,9.05,15.71,8.87,15.91z"/>
	<path class="st73" d="M24.44,39.47c-0.22,0.03-0.35-0.12-0.49-0.26c-2.58-2.58-5.15-5.15-7.73-7.73c-0.1-0.1-0.23-0.19-0.24-0.36
		c0.08-0.11,0.19-0.1,0.31-0.08c0.2,0.08,0.33,0.25,0.47,0.39c2.37,2.37,4.75,4.74,7.12,7.12c0.29,0.29,0.58,0.59,0.91,0.83
		C24.7,39.48,24.57,39.47,24.44,39.47z"/>
	<path class="st66" d="M8.87,18.4c-0.19-0.01-0.28-0.16-0.39-0.27c-2.09-2.08-4.17-4.17-6.25-6.25c-0.12-0.12-0.28-0.23-0.29-0.43
		c0.02-0.14,0.08-0.26,0.18-0.36c2.01,2,4.01,4,6.01,6.01c0.28,0.28,0.67,0.45,0.84,0.84C8.99,18.11,9.02,18.27,8.87,18.4z"/>
	<path class="st74" d="M24.81,39.38c-0.18,0.01-0.3-0.07-0.43-0.19c-2.65-2.66-5.3-5.31-7.96-7.96c-0.03-0.03-0.05-0.07-0.08-0.11
		c0.18-0.16,0.36-0.16,0.53,0c0,0.17,0.13,0.26,0.24,0.36c2.52,2.52,5.03,5.04,7.55,7.55c0.14,0.14,0.26,0.29,0.49,0.26
		C25.06,39.39,24.93,39.38,24.81,39.38z"/>
	<path class="st75" d="M0.01,19.73c0.17-0.09,0.28,0.01,0.39,0.11c0.08,0.07,0.15,0.14,0.22,0.22c6.43,6.43,12.86,12.86,19.3,19.3
		c0.17,0.17,0.34,0.33,0.43,0.56c0,0.02,0,0.05,0,0.07c-0.09,0-0.18,0-0.26,0c0.05-0.09,0.11-0.18,0.01-0.28
		c-0.08-0.08-0.17-0.17-0.25-0.25C13.41,33.02,6.98,26.59,0.55,20.16c-0.15-0.15-0.27-0.37-0.54-0.34
		C0.01,19.79,0.01,19.76,0.01,19.73z"/>
	<path class="st76" d="M25.44,39.22c-0.09-0.07-0.19-0.14-0.27-0.22c-2.56-2.56-5.12-5.11-7.67-7.67c-0.06-0.06-0.11-0.13-0.17-0.2
		c0.1-0.13,0.24-0.11,0.38-0.09c0.19,0.06,0.31,0.22,0.45,0.36c2.43,2.43,4.86,4.85,7.28,7.28c0.13,0.13,0.3,0.24,0.35,0.45
		C25.69,39.21,25.56,39.2,25.44,39.22z"/>
	<path class="st76" d="M8.87,22.67c-0.26-0.25-0.52-0.49-0.77-0.74c-2.33-2.32-4.65-4.65-6.98-6.98c-0.12-0.12-0.23-0.27-0.35-0.4
		c0.01-0.12,0-0.25,0.1-0.34c0.23,0.11,0.4,0.3,0.58,0.48c2.38,2.38,4.77,4.76,7.15,7.15c0.13,0.13,0.29,0.25,0.36,0.45
		C8.99,22.42,9,22.56,8.87,22.67z"/>
	<path class="st77" d="M8.87,22.22c-0.29-0.28-0.58-0.55-0.86-0.83c-2.36-2.34-4.71-4.68-7.07-7.02c-0.04-0.04-0.05-0.1-0.07-0.16
		c0-0.1,0-0.19,0.08-0.26c0.13,0.12,0.27,0.22,0.4,0.35c2.33,2.33,4.66,4.66,6.99,6.99c0.16,0.16,0.31,0.31,0.52,0.4
		C9.03,21.87,9.03,22.04,8.87,22.22z"/>
	<path class="st78" d="M8.87,17.87C7.79,17.04,6.91,16,5.94,15.05c-1.19-1.16-2.36-2.35-3.54-3.53c-0.12-0.12-0.28-0.23-0.29-0.43
		c0.02-0.14,0.08-0.25,0.18-0.35c0,0.15,0.1,0.24,0.19,0.34c2.09,2.09,4.18,4.18,6.27,6.27c0.03,0.03,0.07,0.05,0.11,0.08
		C9.01,17.57,9.01,17.72,8.87,17.87z"/>
	<path class="st79" d="M25.78,39.12c-0.09-0.07-0.19-0.14-0.27-0.22c-2.52-2.52-5.05-5.05-7.57-7.57c-0.06-0.06-0.11-0.14-0.17-0.2
		c0.18-0.16,0.36-0.16,0.53,0c0.09,0.21,0.24,0.37,0.4,0.52c2.33,2.33,4.66,4.66,6.99,6.99c0.12,0.12,0.23,0.26,0.35,0.4
		C25.97,39.12,25.88,39.12,25.78,39.12z"/>
	<path class="st19" d="M12.7,30.41c0.02,0.22,0.2,0.32,0.33,0.45c2.87,2.87,5.74,5.74,8.6,8.61c0.11,0.11,0.34,0.18,0.22,0.42
		c-0.09,0-0.18,0.01-0.27,0.01c-0.01-0.22-0.2-0.32-0.33-0.45c-2.98-2.98-5.96-5.96-8.94-8.94c-0.14-0.14-0.35-0.25-0.32-0.5
		C12.33,29.98,12.55,30.14,12.7,30.41z"/>
	<path class="st70" d="M3.82,8.28C3.91,8.1,4.01,7.94,4.17,7.81C4.68,8.47,5.3,9.01,5.88,9.6c0.82,0.83,1.64,1.65,2.47,2.47
		c0.35,0.35,0.69,0.72,1.11,1.01c0.06,0.22-0.06,0.38-0.18,0.54c-0.21,0.11-0.34-0.04-0.46-0.16c-1.62-1.61-3.23-3.22-4.83-4.83
		C3.89,8.53,3.78,8.44,3.82,8.28z"/>
	<path class="st72" d="M30.04,37.26c-0.12-0.13-0.22-0.27-0.35-0.4c-1.77-1.77-3.54-3.55-5.31-5.32c-0.12-0.12-0.29-0.22-0.3-0.42
		c0.13-0.15,0.29-0.12,0.46-0.09c0.26,0.17,0.44,0.43,0.66,0.65c1.77,1.76,3.54,3.53,5.3,5.3C30.39,37.15,30.18,37.14,30.04,37.26z"
		/>
	<path class="st73" d="M0.61,15.19c-0.01,0.26,0.12,0.44,0.3,0.62c2.49,2.49,4.98,4.98,7.47,7.46c0.14,0.14,0.33,0.25,0.49,0.37
		c0.11,0.12,0.11,0.24,0,0.36c-0.19-0.01-0.28-0.16-0.39-0.27c-2.56-2.56-5.12-5.12-7.69-7.68c-0.12-0.12-0.27-0.23-0.28-0.43
		C0.52,15.47,0.51,15.31,0.61,15.19z"/>
	<path class="st78" d="M28.9,37.88c-0.09-0.07-0.19-0.14-0.27-0.22c-2.11-2.11-4.22-4.22-6.33-6.33c-0.06-0.06-0.11-0.13-0.17-0.2
		c0.15-0.14,0.3-0.14,0.44,0c0.69,0.71,1.38,1.41,2.08,2.12c1.38,1.38,2.76,2.76,4.14,4.14c0.13,0.13,0.24,0.31,0.46,0.32
		C29.16,37.79,29.04,37.85,28.9,37.88z"/>
	<path class="st80" d="M26.39,30.77c0,0.13,0.09,0.21,0.18,0.29c1.69,1.7,3.37,3.39,5.06,5.09c0.02,0.02,0.06,0.01,0.08,0.02
		c-0.09,0.06-0.17,0.12-0.26,0.18c-0.19,0-0.28-0.15-0.39-0.26c-1.59-1.59-3.18-3.18-4.77-4.77c-0.12-0.12-0.35-0.23-0.17-0.47
		C26.18,30.73,26.26,30.66,26.39,30.77z"/>
	<path class="st81" d="M9.41,13.07c-0.24-0.03-0.4-0.18-0.56-0.34C7.38,11.25,5.9,9.78,4.43,8.3C4.29,8.16,4.14,8.04,4.17,7.81
		c0.05-0.07,0.11-0.14,0.16-0.21c0.13,0.02,0.2,0.11,0.29,0.2c1.58,1.58,3.17,3.17,4.75,4.75c0.07,0.07,0.15,0.15,0.18,0.25
		C9.57,12.93,9.54,13.02,9.41,13.07z"/>
	<path class="st82" d="M4.8,7.04C4.79,7.17,4.89,7.25,4.97,7.33c1.58,1.58,3.17,3.17,4.75,4.75c0.04,0.04,0.1,0.07,0.14,0.1
		c0.11,0.2-0.03,0.29-0.16,0.38c-0.21,0.03-0.32-0.13-0.44-0.25c-1.5-1.5-3-3-4.5-4.5c-0.12-0.12-0.3-0.21-0.24-0.43
		C4.58,7.23,4.68,7.12,4.8,7.04z"/>
	<path class="st83" d="M27.81,30.13c0.26,0.37,0.6,0.64,0.91,0.96c1.27,1.28,2.54,2.55,3.81,3.81c0.12,0.12,0.21,0.29,0.42,0.3
		c-0.09,0.12-0.2,0.21-0.33,0.28c-0.2,0.06-0.29-0.1-0.4-0.21c-1.52-1.52-3.04-3.04-4.56-4.56c-0.11-0.11-0.25-0.22-0.23-0.41
		C27.52,30.16,27.62,30.02,27.81,30.13z"/>
	<path class="st84" d="M30.5,36.99c-0.2,0-0.31-0.16-0.43-0.29c-1.73-1.73-3.46-3.46-5.19-5.19c-0.11-0.11-0.26-0.2-0.26-0.39
		c0.09-0.1,0.2-0.1,0.31-0.07c0.1,0.03,0.18,0.1,0.25,0.17c1.87,1.86,3.73,3.73,5.6,5.59C30.7,36.9,30.62,36.96,30.5,36.99z"/>
	<path class="st85" d="M30.77,36.81c-0.15,0-0.24-0.09-0.34-0.19c-1.78-1.78-3.56-3.56-5.34-5.34c-0.05-0.05-0.08-0.12-0.13-0.18
		c0.12-0.18,0.27-0.21,0.45-0.07c0,0.19,0.15,0.28,0.26,0.39c1.64,1.65,3.29,3.29,4.94,4.94c0.12,0.12,0.23,0.27,0.43,0.28
		C30.98,36.72,30.89,36.79,30.77,36.81z"/>
	<path class="st86" d="M3.82,8.28c0.86,0.87,1.71,1.74,2.57,2.61c0.81,0.82,1.62,1.63,2.44,2.44c0.11,0.11,0.2,0.26,0.39,0.27
		c0.08,0.12,0.02,0.2-0.08,0.27c-0.14,0.1-0.21,0-0.3-0.09c-1.72-1.72-3.44-3.45-5.16-5.17C3.66,8.59,3.65,8.56,3.64,8.54
		C3.7,8.45,3.76,8.36,3.82,8.28z"/>
	<path class="st81" d="M32.18,35.82c-0.17,0-0.26-0.12-0.36-0.23c-1.55-1.55-3.11-3.1-4.66-4.66c-0.1-0.1-0.23-0.19-0.23-0.36
		c0.07-0.17,0.19-0.23,0.37-0.2c0.17,0.26,0.38,0.48,0.6,0.7c1.39,1.39,2.78,2.77,4.16,4.16c0.12,0.12,0.28,0.22,0.32,0.41
		C32.31,35.72,32.25,35.77,32.18,35.82z"/>
	<path class="st87" d="M4.52,7.37C4.72,7.67,5,7.89,5.25,8.14c1.47,1.47,2.95,2.93,4.42,4.39c0.07,0.16-0.04,0.22-0.16,0.27
		c-0.39-0.38-0.79-0.75-1.18-1.13c-1.22-1.22-2.44-2.44-3.66-3.66c-0.12-0.12-0.23-0.27-0.34-0.4C4.37,7.51,4.43,7.42,4.52,7.37z"/>
	<path class="st87" d="M32.38,35.66c-0.11-0.09-0.24-0.18-0.34-0.28c-1.5-1.49-2.99-2.99-4.49-4.49c-0.13-0.13-0.3-0.25-0.27-0.48
		c0.03-0.09,0.08-0.14,0.18-0.09c1.64,1.65,3.28,3.31,4.93,4.96c0.07,0.07,0.16,0.13,0.24,0.19C32.57,35.57,32.49,35.63,32.38,35.66
		z"/>
	<path class="st88" d="M1.77,27.47c-0.09,0.03-0.25-0.15-0.27,0.09c-0.1-0.13-0.16-0.28-0.18-0.45C1.55,27.13,1.66,27.3,1.77,27.47z
		"/>
	<path class="st75" d="M0.02,20.53c0.02,0,0.04,0,0.06,0c0.15,0.18,0.15,0.36,0.01,0.54c-0.01,0.07-0.01,0.14-0.02,0.2
		C-0.04,21.03,0.01,20.78,0.02,20.53z"/>
	<path class="st89" d="M0.09,21.07c0-0.18-0.01-0.36-0.01-0.54c0.02-0.09,0.04-0.2,0.16-0.12c0.11,0.07,0.2,0.17,0.29,0.27
		c6.26,6.26,12.52,12.51,18.77,18.77c0.11,0.11,0.33,0.22,0.27,0.37c-0.07,0.19-0.31,0.06-0.48,0.09c-0.06,0.01-0.12,0-0.18,0
		c-0.1-0.11-0.19-0.23-0.29-0.33C12.56,33.5,6.49,27.43,0.42,21.36C0.32,21.26,0.2,21.17,0.09,21.07z"/>
	<path class="st90" d="M39.9,20.8c-0.02,0.11,0.07,0.27-0.08,0.31c-0.08,0.02-0.2-0.05-0.27-0.11c-0.11-0.08-0.2-0.18-0.29-0.27
		C32.59,14.06,25.93,7.4,19.27,0.74c-0.09-0.09-0.2-0.18-0.27-0.29c-0.06-0.08-0.13-0.2-0.11-0.27c0.04-0.15,0.2-0.07,0.31-0.08
		c0.08,0.2,0.22,0.35,0.36,0.5C26.17,7.2,32.79,13.82,39.4,20.43C39.55,20.58,39.7,20.72,39.9,20.8z"/>
	<path class="st91" d="M27.46,30.32c-0.06,0.03-0.12,0.06-0.18,0.09c-0.12,0.06-0.24,0.11-0.36,0.17c-0.18,0.06-0.36,0.13-0.53,0.19
		c-0.09,0.03-0.18,0.06-0.27,0.08c-0.24,0.06-0.47,0.11-0.71,0.17c-0.15-0.01-0.31-0.03-0.45,0.07c-0.12,0.01-0.24,0.01-0.36,0.02
		c-0.18,0-0.36,0-0.53,0c-0.27,0-0.53,0-0.8,0c-0.24,0-0.47,0-0.71,0c-0.15,0-0.3,0-0.44,0c-0.18,0-0.36,0-0.53,0
		c-0.18,0-0.36,0-0.53,0c-0.24,0-0.47,0-0.71,0c-0.27,0-0.53,0-0.8,0c-0.24,0-0.47,0-0.71,0c-0.18,0-0.36,0-0.53,0
		c-0.18,0-0.36,0-0.53,0c-0.15,0-0.3,0-0.44,0c-0.15,0-0.3,0-0.44,0c-0.18,0-0.36,0-0.53,0c-0.12,0-0.24,0-0.36,0
		c-0.18,0-0.36,0-0.53,0c-0.24-0.03-0.47-0.05-0.71-0.08c-0.3-0.06-0.59-0.12-0.89-0.18c-0.39-0.15-0.77-0.3-1.16-0.45
		c-0.23-0.13-0.47-0.27-0.7-0.4c-1.03-0.71-1.83-1.62-2.42-2.72c-0.15-0.39-0.3-0.77-0.45-1.16c-0.06-0.27-0.12-0.53-0.18-0.8
		c-0.03-0.24-0.06-0.47-0.08-0.71c0-0.21,0-0.41-0.01-0.62c0-0.12,0-0.24,0-0.36c0-0.18,0-0.36,0-0.53c0-0.15,0-0.3,0-0.44
		c0-0.15,0-0.3,0-0.44c0-0.18,0-0.36,0-0.53c0-0.18,0-0.36,0-0.53c0-0.24,0-0.47,0-0.71c0-0.27,0-0.53,0-0.8c0-0.24,0-0.47,0-0.71
		c0-0.18,0-0.36,0-0.53c0-0.18,0-0.36,0-0.53c0-0.15,0-0.3,0-0.44c0-0.24,0-0.47,0-0.71c0-0.27,0-0.53,0-0.8
		c0-0.21,0.01-0.41,0.01-0.62c0.03-0.24,0.06-0.47,0.09-0.71c0.06-0.24,0.11-0.47,0.17-0.71c0.03-0.09,0.06-0.18,0.08-0.27
		c0.06-0.18,0.13-0.36,0.19-0.53c0.07-0.08,0.12-0.16,0.1-0.27c0.05-0.09,0.16-0.14,0.16-0.27c0.06-0.12,0.13-0.24,0.19-0.35
		c0.12-0.17,0.24-0.35,0.35-0.52c0.19-0.15,0.3-0.37,0.44-0.56c0.19-0.09,0.32-0.26,0.45-0.42c0.23-0.1,0.33-0.34,0.53-0.46
		c0.25-0.07,0.43-0.26,0.64-0.39c0.24-0.12,0.47-0.25,0.71-0.37c0.2-0.08,0.41-0.15,0.61-0.23c0.27-0.08,0.55-0.16,0.82-0.23
		c0.21-0.01,0.42,0.01,0.61-0.09c0.26-0.01,0.52-0.01,0.78-0.02c0.33,0,0.65,0,0.98,0c0.36,0,0.71,0,1.07,0c0.41,0,0.83,0,1.24,0
		c0.27,0,0.53,0,0.8,0c0.3,0,0.59,0,0.89,0c0.3,0,0.59,0,0.89,0c0.36,0,0.71,0,1.07,0c0.41,0,0.83,0,1.24,0
		c0.35,0.01,0.71,0.02,1.06,0.04c0.39,0.08,0.77,0.16,1.16,0.24c0.41,0.17,0.83,0.35,1.24,0.52c1.26,0.71,2.22,1.71,2.92,2.96
		c0.16,0.41,0.32,0.83,0.48,1.24c0.06,0.27,0.12,0.53,0.18,0.8c0.03,0.41,0.06,0.83,0.09,1.24c0,0.33,0,0.65,0,0.98
		c0,0.24,0,0.47,0,0.71c0,0.24,0,0.47,0,0.71c0,0.33,0,0.65,0,0.98c0,0.41,0,0.83,0,1.24c0,0.36,0,0.71,0,1.07c0,0.27,0,0.53,0,0.8
		c0,0.27,0,0.53,0,0.8c0,0.33,0,0.65,0,0.98c-0.01,0.26-0.01,0.52-0.02,0.78c-0.1,0.19-0.08,0.41-0.09,0.61
		c-0.1,0.23-0.16,0.46-0.18,0.71c-0.09,0.24-0.19,0.49-0.28,0.73c-0.13,0.24-0.25,0.48-0.38,0.72c-0.1,0.17-0.21,0.34-0.31,0.5
		c-0.22,0.18-0.36,0.43-0.53,0.65c-0.15,0.15-0.3,0.3-0.45,0.44c-0.18,0.15-0.36,0.3-0.54,0.44c-0.17,0.12-0.35,0.23-0.52,0.35
		C27.7,30.19,27.58,30.26,27.46,30.32z"/>
	<path class="st34" d="M28.6,19.46c0,0.39,0,0.77,0,1.16c-0.26,0.13-0.37-0.11-0.5-0.24c-0.84-0.82-1.67-1.66-2.5-2.49
		c-0.17-0.17-0.33-0.33-0.56-0.42c-0.26-0.24-0.43-0.56-0.63-0.85c-0.49-0.71-1.23-1.13-1.88-1.65c-0.14-0.26-0.33-0.48-0.54-0.69
		c-0.8-0.79-1.59-1.58-2.37-2.38c-0.13-0.13-0.37-0.24-0.24-0.5c0.39,0,0.77,0,1.16,0c0.24,0.13,0.38,0.37,0.57,0.55
		c2.47,2.44,4.89,4.92,7.38,7.35C28.53,19.34,28.57,19.4,28.6,19.46z"/>
	<path class="st26" d="M28.6,19.46c-0.19-0.08-0.35-0.22-0.49-0.37c-2.4-2.41-4.81-4.81-7.22-7.22c-0.15-0.15-0.29-0.3-0.37-0.49
		c0.39,0,0.77,0,1.16,0c0.2,0.08,0.34,0.23,0.49,0.38c2.02,2.02,4.04,4.04,6.06,6.06c0.15,0.15,0.29,0.29,0.37,0.49
		C28.6,18.69,28.6,19.08,28.6,19.46z"/>
	<path class="st92" d="M11.38,20c0-0.24,0-0.47,0-0.71c0.27-0.13,0.37,0.11,0.51,0.24c0.87,0.86,1.74,1.73,2.61,2.6
		c0.12,0.12,0.24,0.27,0.41,0.33c0.21,0.17,0.32,0.42,0.47,0.64c0.47,0.68,1.04,1.25,1.76,1.66c0.15,0.09,0.32,0.17,0.41,0.33
		c0.06,0.18,0.21,0.29,0.33,0.41c0.87,0.87,1.74,1.73,2.6,2.61c0.13,0.13,0.37,0.24,0.24,0.51c-0.24,0-0.48,0-0.71,0
		c-0.19-0.09-0.34-0.23-0.49-0.38c-2.58-2.58-5.17-5.17-7.75-7.75C11.61,20.34,11.46,20.19,11.38,20z"/>
	<path class="st93" d="M28.6,18.31c-0.5-0.48-1-0.96-1.49-1.45c-1.7-1.7-3.41-3.4-5.11-5.11c-0.11-0.11-0.22-0.24-0.33-0.36
		c0.33,0,0.65,0,0.98,0c0.24,0.1,0.41,0.29,0.58,0.47c0.61,0.62,1.24,1.23,1.85,1.85c0.02,0.82,0.17,0.96,1.19,1.17
		c0.76,0.8,1.58,1.55,2.32,2.37C28.6,17.6,28.6,17.95,28.6,18.31z"/>
	<path class="st66" d="M11.38,21.07c0-0.18,0-0.36,0-0.53c0.23-0.07,0.36,0.09,0.49,0.22c2.46,2.45,4.91,4.91,7.36,7.36
		c0.13,0.13,0.29,0.26,0.22,0.49c-0.18,0-0.36,0-0.53,0c-0.19-0.09-0.34-0.23-0.49-0.38c-2.23-2.23-4.45-4.46-6.68-6.68
		C11.61,21.41,11.46,21.26,11.38,21.07z"/>
	<path class="st94" d="M17.77,28.61c-0.21,0-0.41,0-0.62,0c-0.19-0.09-0.34-0.23-0.49-0.38c-1.63-1.64-3.27-3.27-4.91-4.91
		c-0.15-0.15-0.29-0.29-0.37-0.49c0-0.21,0-0.41,0-0.62c0.23-0.07,0.36,0.09,0.49,0.22c1.9,1.89,3.79,3.78,5.68,5.68
		C17.68,28.25,17.84,28.39,17.77,28.61z"/>
	<path class="st44" d="M28.59,24.71c-0.04,0.34-0.07,0.68-0.24,0.98c-0.22,0.13-0.33-0.06-0.45-0.17c-0.97-0.96-1.93-1.92-2.89-2.88
		c0.06-0.42,0.16-0.82,0.44-1.15c0.83,0.9,1.72,1.73,2.56,2.61C28.21,24.3,28.49,24.42,28.59,24.71z"/>
	<path class="st71" d="M11.38,21.07c0.12,0.11,0.25,0.21,0.36,0.32c2.29,2.29,4.58,4.57,6.86,6.86c0.11,0.11,0.22,0.24,0.32,0.36
		c-0.21,0-0.41,0-0.62,0c-1.05-1-2.06-2.04-3.08-3.06c-1.28-1.29-2.59-2.55-3.84-3.86C11.38,21.48,11.38,21.27,11.38,21.07z"/>
	<path class="st95" d="M11.38,24.27c0-0.27,0-0.53,0-0.8c0.23-0.07,0.36,0.09,0.49,0.22c1.48,1.47,2.96,2.95,4.43,4.43
		c0.13,0.13,0.29,0.26,0.22,0.49c-0.27,0-0.53,0-0.8,0C14.26,27.18,12.81,25.73,11.38,24.27z"/>
	<path class="st96" d="M12.07,13.42c0.11-0.24,0.26-0.45,0.47-0.61c0.15-0.12,0.26-0.01,0.34,0.08c1.01,1.01,2.04,2,3.02,3.04
		c0.02,0.02,0.03,0.05,0.04,0.08c-0.06,0.32-0.23,0.56-0.55,0.67c-0.16,0-0.27-0.12-0.37-0.22c-0.92-0.91-1.84-1.83-2.75-2.75
		C12.18,13.62,12.09,13.54,12.07,13.42z"/>
	<path class="st97" d="M15.93,16.01c-0.93-0.8-1.74-1.72-2.63-2.56c-0.24-0.23-0.41-0.55-0.76-0.64c0.15-0.23,0.36-0.41,0.6-0.54
		c0.22-0.12,0.33,0.05,0.45,0.17c0.9,0.89,1.8,1.79,2.7,2.7c0.11,0.12,0.23,0.23,0.22,0.42C16.4,15.81,16.21,15.96,15.93,16.01z"/>
	<path class="st98" d="M25.03,22.66c0.2,0,0.31,0.16,0.43,0.28c0.82,0.82,1.64,1.64,2.46,2.46c0.12,0.12,0.22,0.29,0.42,0.29
		c-0.09,0.33-0.2,0.64-0.44,0.9c-0.11-0.01-0.18-0.09-0.26-0.16c-0.97-0.97-1.95-1.94-2.92-2.92c-0.06-0.06-0.12-0.13-0.15-0.22
		C24.64,23.02,24.76,22.78,25.03,22.66z"/>
	<path class="st99" d="M19.46,28.61c-0.08-0.2-0.22-0.35-0.37-0.5c-2.41-2.4-4.81-4.81-7.22-7.22c-0.15-0.15-0.3-0.29-0.5-0.37
		c0-0.18,0-0.36,0-0.53c0.08,0.07,0.16,0.13,0.24,0.2c2.73,2.73,5.45,5.45,8.18,8.18c0.07,0.07,0.13,0.16,0.2,0.24
		C19.81,28.61,19.64,28.61,19.46,28.61z"/>
	<path class="st51" d="M12.07,13.42c1.02,0.9,1.92,1.91,2.9,2.85c0.14,0.13,0.25,0.3,0.43,0.37c0.01,0.29-0.18,0.47-0.37,0.65
		c-0.22,0.1-0.37-0.03-0.51-0.16c-0.88-0.87-1.76-1.75-2.64-2.63c-0.1-0.1-0.22-0.21-0.17-0.38C11.77,13.84,11.89,13.61,12.07,13.42
		z"/>
	<path class="st58" d="M11.38,21.69c0.19,0,0.28,0.15,0.39,0.27c2.09,2.09,4.18,4.18,6.27,6.27c0.11,0.11,0.26,0.2,0.27,0.39
		c-0.18,0-0.36,0-0.53,0c-0.08-0.2-0.22-0.35-0.37-0.5c-1.84-1.84-3.69-3.68-5.53-5.53c-0.15-0.15-0.3-0.29-0.5-0.37
		C11.38,22.05,11.38,21.87,11.38,21.69z"/>
	<path class="st100" d="M25.07,17.42c0.23-0.03,0.34,0.13,0.48,0.27c0.89,0.89,1.78,1.78,2.66,2.66c0.11,0.11,0.2,0.26,0.39,0.27
		c0,0.36,0,0.71,0,1.07c-0.24,0.12-0.35-0.09-0.47-0.21c-0.53-0.51-1.05-1.04-1.57-1.56c-0.32-0.32-0.64-0.65-1.03-0.9
		C25.36,18.49,25.09,17.99,25.07,17.42z"/>
	<path class="st100" d="M19.37,11.39c0.01,0.19,0.16,0.28,0.27,0.39c0.86,0.87,1.73,1.73,2.59,2.59c0.16,0.16,0.31,0.32,0.34,0.55
		c-0.57-0.03-1.07-0.28-1.59-0.46c-0.7-0.96-1.64-1.7-2.43-2.57c-0.13-0.14-0.37-0.24-0.24-0.51
		C18.66,11.39,19.02,11.39,19.37,11.39z"/>
	<path class="st101" d="M28.59,24.71c-1.08-0.85-1.96-1.91-2.96-2.85c-0.11-0.1-0.13-0.22-0.13-0.36c-0.16-0.31-0.05-0.59,0.09-0.87
		c0.06-0.03,0.11-0.01,0.15,0.03c0.91,0.9,1.79,1.84,2.75,2.71c0.06,0.05,0.08,0.12,0.12,0.19C28.63,23.94,28.64,24.32,28.59,24.71z
		"/>
	<path class="st101" d="M15.46,11.4c0.33,0,0.66-0.01,0.98-0.01c0.89,0.83,1.73,1.71,2.58,2.57c0.13,0.13,0.32,0.21,0.36,0.42
		c-0.24,0.21-0.55,0.17-0.83,0.22c-0.24,0.01-0.43-0.1-0.59-0.26c-0.77-0.77-1.56-1.54-2.32-2.33C15.5,11.86,15.21,11.69,15.46,11.4
		z"/>
	<path class="st102" d="M24.53,11.4c0.25,0.14,0.56-0.04,0.8,0.14c1.03,1.05,2.08,2.08,3.12,3.13c0.18,0.43,0.18,0.88,0.15,1.34
		c-0.12,0.1-0.23,0.02-0.31-0.06c-0.46-0.43-0.91-0.88-1.34-1.34c-0.09-0.1-0.12-0.23-0.13-0.37c0.02-0.54-0.22-0.9-0.72-1.09
		c-0.25-0.07-0.44-0.2-0.61-0.4c-0.25-0.31-0.56-0.56-0.82-0.85C24.54,11.75,24.37,11.62,24.53,11.4z"/>
	<path class="st52" d="M27.1,27.54c-0.17,0.19-0.37,0.35-0.62,0.45c-0.87-0.81-1.69-1.67-2.53-2.51c-0.26-0.26-0.54-0.5-0.78-0.78
		c0.12-0.28,0.32-0.45,0.63-0.5c0.19,0.03,0.31,0.17,0.43,0.29c0.88,0.87,1.75,1.74,2.62,2.62C26.96,27.23,27.14,27.32,27.1,27.54z"
		/>
	<path class="st49" d="M24.64,23.29c1.11,1.09,2.23,2.15,3.27,3.3c-0.1,0.24-0.26,0.43-0.45,0.6c-1.06-1-2.06-2.05-3.09-3.08
		c-0.08-0.08-0.16-0.18-0.17-0.3C24.22,23.54,24.37,23.36,24.64,23.29z"/>
	<path class="st51" d="M23.2,24.71c0.13,0,0.21,0.08,0.3,0.17c0.94,0.94,1.88,1.88,2.81,2.81c0.08,0.08,0.17,0.16,0.17,0.3
		c-0.17,0.14-0.37,0.25-0.59,0.29c-0.14,0.04-0.22-0.05-0.3-0.14c-0.83-0.9-1.73-1.74-2.58-2.62c-0.15-0.15-0.36-0.28-0.31-0.55
		C22.82,24.8,22.95,24.64,23.2,24.71z"/>
	<path class="st44" d="M15.46,11.4c-0.08,0.26,0.12,0.4,0.27,0.55c0.78,0.79,1.56,1.57,2.34,2.35c0.12,0.12,0.24,0.21,0.42,0.19
		c-0.23,0.33-0.59,0.36-0.94,0.41c-0.3-0.12-0.43-0.43-0.64-0.65c-0.74-0.72-1.46-1.45-2.18-2.18c-0.13-0.13-0.37-0.24-0.24-0.5
		C14.8,11.47,15.12,11.38,15.46,11.4z"/>
	<path class="st77" d="M11.38,24.27c0.15,0,0.23,0.11,0.33,0.2c1.27,1.27,2.54,2.54,3.82,3.82c0.09,0.09,0.2,0.18,0.2,0.33
		c-0.3,0.03-0.6,0.01-0.89-0.09c-1.07-1.17-2.19-2.29-3.37-3.37C11.37,24.87,11.35,24.57,11.38,24.27z"/>
	<path class="st103" d="M16.53,28.61c-0.08-0.2-0.22-0.35-0.36-0.49c-1.43-1.43-2.86-2.86-4.29-4.29c-0.15-0.15-0.3-0.28-0.49-0.36
		c0-0.21,0-0.41,0-0.62c1.03,1.02,2.07,2.03,3.09,3.05c0.9,0.9,1.79,1.81,2.68,2.71C16.94,28.61,16.73,28.61,16.53,28.61z"/>
	<path class="st104" d="M16.44,15.55c0-0.13-0.08-0.21-0.17-0.3c-0.94-0.94-1.88-1.88-2.83-2.83c-0.09-0.09-0.17-0.16-0.3-0.16
		c0.15-0.17,0.34-0.27,0.55-0.35c0.21-0.1,0.33,0.05,0.45,0.17c0.9,0.89,1.8,1.79,2.69,2.69c0.11,0.11,0.23,0.23,0.19,0.42
		C16.87,15.4,16.72,15.59,16.44,15.55z"/>
	<path class="st105" d="M16.97,15.18c0-0.13-0.1-0.21-0.18-0.29c-0.92-0.93-1.85-1.85-2.77-2.77c-0.09-0.09-0.18-0.2-0.33-0.2
		c0.24-0.17,0.51-0.28,0.8-0.34c0.01,0.19,0.16,0.27,0.27,0.39c0.73,0.73,1.45,1.46,2.19,2.19c0.22,0.22,0.42,0.45,0.57,0.72
		C17.4,15.1,17.24,15.23,16.97,15.18z"/>
	<path class="st106" d="M25.61,19.02c0.23,0.03,0.39,0.18,0.55,0.34c0.68,0.69,1.37,1.37,2.06,2.06c0.11,0.11,0.2,0.26,0.39,0.27
		c0,0.33,0,0.65,0,0.98c-0.15,0.11-0.26,0-0.35-0.09c-0.89-0.88-1.78-1.75-2.65-2.65C25.59,19.63,25.39,19.32,25.61,19.02z"/>
	<path class="st106" d="M18.3,11.39c0.01,0.19,0.16,0.28,0.27,0.39c0.68,0.69,1.37,1.38,2.06,2.06c0.16,0.16,0.31,0.32,0.34,0.55
		c-0.3,0.22-0.6,0.02-0.9,0.01c-0.9-0.87-1.78-1.76-2.66-2.66c-0.09-0.09-0.19-0.2-0.08-0.35C17.65,11.39,17.98,11.39,18.3,11.39z"
		/>
	<path class="st59" d="M24.24,23.79c0.52,0.67,1.17,1.21,1.76,1.82c0.4,0.42,0.82,0.82,1.22,1.23c0.1,0.1,0.24,0.19,0.24,0.36
		c-0.08,0.15-0.21,0.27-0.36,0.35c-1.08-1.12-2.16-2.25-3.32-3.29C23.84,24,23.99,23.84,24.24,23.79z"/>
	<path class="st107" d="M17.33,11.39c0.01,0.19,0.16,0.28,0.27,0.39c0.71,0.71,1.42,1.42,2.13,2.13c0.11,0.11,0.26,0.2,0.27,0.39
		c-0.2,0.17-0.4,0.16-0.6,0.02c-0.1-0.01-0.2-0.01-0.28-0.1c-0.81-0.83-1.62-1.64-2.43-2.47c-0.1-0.1-0.16-0.24-0.25-0.36
		C16.74,11.39,17.03,11.39,17.33,11.39z"/>
	<path class="st107" d="M25.69,20c0.19,0.01,0.28,0.16,0.39,0.27c0.71,0.71,1.42,1.42,2.13,2.13c0.11,0.11,0.2,0.26,0.39,0.27
		c0,0.3,0,0.59,0,0.89c-0.95-0.69-1.68-1.61-2.53-2.42c-0.16-0.15-0.43-0.24-0.4-0.54C25.53,20.39,25.52,20.19,25.69,20z"/>
	<path class="st108" d="M22.75,24.99c0.03,0.07,0.04,0.15,0.08,0.2c1.02,1.03,2.04,2.07,3.06,3.1c-0.16,0.11-0.34,0.17-0.54,0.18
		c-0.21,0.04-0.32-0.11-0.44-0.23c-0.84-0.83-1.67-1.66-2.5-2.5c-0.13-0.13-0.3-0.26-0.23-0.49C22.33,25.06,22.49,24.92,22.75,24.99
		z"/>
	<path class="st109" d="M26.92,14.2c0.01,0.07-0.01,0.17,0.03,0.21c0.52,0.56,0.99,1.17,1.65,1.59c0,0.41,0,0.83,0,1.24
		c-0.17,0-0.25-0.13-0.36-0.23c-0.57-0.57-1.14-1.14-1.71-1.71c-0.11-0.11-0.24-0.22-0.24-0.4C26.47,14.64,26.67,14.4,26.92,14.2z"
		/>
	<path class="st110" d="M14.85,22.47c-0.2,0.12-0.24-0.09-0.33-0.17c-0.91-0.9-1.82-1.81-2.72-2.71c-0.12-0.12-0.22-0.29-0.42-0.3
		c0-0.27,0-0.53,0-0.8c0.24-0.04,0.34,0.16,0.46,0.28c0.71,0.69,1.4,1.4,2.1,2.1c0.15,0.15,0.29,0.3,0.52,0.27
		C14.68,21.56,14.89,21.98,14.85,22.47z"/>
	<path class="st110" d="M20.7,28.61c-0.01-0.2-0.18-0.3-0.3-0.42c-0.9-0.91-1.82-1.81-2.72-2.73c-0.08-0.08-0.29-0.13-0.16-0.32
		c0.48-0.03,0.9,0.17,1.31,0.38c-0.03,0.24,0.12,0.38,0.27,0.52c0.7,0.7,1.4,1.4,2.1,2.1c0.13,0.13,0.32,0.23,0.28,0.46
		C21.24,28.61,20.97,28.61,20.7,28.61z"/>
	<path class="st111" d="M11.38,17.16c0-0.24,0-0.47,0-0.71c0.24-0.12,0.35,0.08,0.47,0.2c0.75,0.74,1.51,1.49,2.24,2.25
		c0.11,0.12,0.23,0.13,0.36,0.17c0.07,0.27-0.02,0.53-0.08,0.79c-0.13,0.17-0.27,0.1-0.38-0.01c-0.86-0.83-1.72-1.66-2.52-2.55
		C11.43,17.27,11.41,17.21,11.38,17.16z"/>
	<path class="st112" d="M28.45,14.66c-1.16-0.92-2.21-1.95-3.12-3.13C26.95,12,28.03,13,28.45,14.66z"/>
	<path class="st108" d="M11.71,14.1c0.64,0.78,1.4,1.43,2.09,2.16c0.25,0.27,0.52,0.52,0.78,0.78c0.12,0.12,0.23,0.23,0.42,0.2
		c0.07,0.26-0.07,0.42-0.24,0.57c-0.21,0.07-0.33-0.08-0.46-0.2c-0.86-0.85-1.71-1.71-2.57-2.57c-0.11-0.11-0.25-0.22-0.2-0.41
		C11.54,14.44,11.6,14.26,11.71,14.1z"/>
	<path class="st113" d="M11.47,25.16c0.24,0.03,0.39,0.18,0.55,0.34c0.82,0.83,1.65,1.65,2.47,2.47c0.16,0.16,0.31,0.32,0.34,0.55
		c-0.35-0.06-0.69-0.13-0.98-0.34c-0.69-0.67-1.37-1.35-2.05-2.04C11.6,25.84,11.53,25.5,11.47,25.16z"/>
	<path class="st70" d="M24.99,28.54c-0.32,0.13-0.66,0.09-0.99,0.07c-0.92-0.87-1.8-1.78-2.7-2.68c-0.1-0.1-0.22-0.21-0.19-0.38
		c0.13-0.19,0.33-0.2,0.53-0.19c0.18,0.06,0.29,0.2,0.41,0.32c0.84,0.84,1.69,1.67,2.52,2.53C24.7,28.35,24.87,28.41,24.99,28.54z"
		/>
	<path class="st70" d="M11.38,15.91c-0.01-0.3-0.06-0.61,0.07-0.91c0.19,0.32,0.48,0.55,0.73,0.81c0.8,0.84,1.67,1.6,2.43,2.49
		c0.04,0.11,0,0.21-0.06,0.31c-0.26,0.34-0.47,0.1-0.65-0.08c-0.66-0.64-1.3-1.29-1.95-1.94C11.74,16.38,11.5,16.19,11.38,15.91z"/>
	<path class="st69" d="M23.46,28.61c-0.21,0-0.42,0-0.62,0c-0.16-0.08-0.3-0.18-0.42-0.31c-0.7-0.71-1.42-1.41-2.11-2.12
		c-0.14-0.14-0.39-0.27-0.19-0.54c0.23-0.08,0.47-0.13,0.72-0.1c0.33,0.61,0.88,1.01,1.34,1.5c0.36,0.39,0.75,0.75,1.12,1.13
		C23.4,28.29,23.58,28.4,23.46,28.61z"/>
	<path class="st55" d="M20.08,25.7c0.01,0.2,0.18,0.3,0.3,0.42c0.82,0.83,1.64,1.66,2.45,2.5c-0.27,0-0.53,0-0.8,0
		c-0.86-0.81-1.68-1.66-2.52-2.5c-0.13-0.13-0.35-0.29-0.07-0.5C19.67,25.56,19.89,25.52,20.08,25.7z"/>
	<path class="st114" d="M11.38,17.16c0.83,0.82,1.66,1.64,2.5,2.45c0.12,0.12,0.22,0.29,0.42,0.3c0.18,0.19,0.14,0.41,0.09,0.62
		c-0.2,0.29-0.36,0.08-0.5-0.05c-0.84-0.84-1.7-1.66-2.51-2.53C11.38,17.69,11.38,17.42,11.38,17.16z"/>
	<path class="st115" d="M14.55,18.31c-1-0.98-2-1.96-3-2.94c-0.12-0.11-0.08-0.24-0.1-0.37c-0.01-0.13-0.01-0.26,0.08-0.37
		c0.8,0.93,1.71,1.75,2.57,2.62c0.19,0.19,0.33,0.46,0.64,0.52C14.87,18.02,14.74,18.18,14.55,18.31z"/>
	<path class="st81" d="M24.99,28.54c-0.12-0.02-0.25,0.02-0.37-0.1c-0.97-1-1.96-2-2.94-3c0.14-0.18,0.29-0.31,0.53-0.19
		c0,0.11,0.06,0.19,0.14,0.27c0.95,0.95,1.9,1.9,2.85,2.85c0.04,0.04,0.1,0.06,0.15,0.09C25.25,28.55,25.12,28.55,24.99,28.54z"/>
	<path class="st116" d="M11.38,17.96c0.19,0,0.28,0.15,0.39,0.27c0.71,0.71,1.41,1.41,2.12,2.12c0.12,0.12,0.22,0.29,0.43,0.28
		c0.26,0.14,0.2,0.33,0.08,0.52c-0.14,0.35-0.27,0.05-0.35-0.03c-0.78-0.76-1.54-1.53-2.31-2.3c-0.11-0.11-0.24-0.22-0.36-0.32
		C11.38,18.31,11.38,18.13,11.38,17.96z"/>
	<path class="st117" d="M19.37,25.67c-0.01,0.21,0.16,0.31,0.28,0.43c0.7,0.71,1.41,1.41,2.12,2.12c0.11,0.11,0.26,0.2,0.27,0.39
		c-0.18,0-0.36,0-0.53,0c-0.88-0.89-1.75-1.78-2.62-2.67c-0.08-0.09-0.38-0.21-0.03-0.35C19.05,25.47,19.24,25.41,19.37,25.67z"/>
	<path class="st118" d="M25.03,13.69c-0.26-0.05-0.38-0.28-0.54-0.44c-0.62-0.61-1.22-1.24-1.83-1.86c0.3,0,0.59,0,0.89,0
		c0.41,0.2,0.66,0.57,0.98,0.87c0.31,0.29,0.61,0.59,0.91,0.89C25.41,13.42,25.24,13.57,25.03,13.69z"/>
	<path class="st80" d="M23.46,28.61c0-0.19-0.16-0.28-0.27-0.39c-0.72-0.72-1.44-1.44-2.16-2.17c-0.12-0.12-0.32-0.22-0.15-0.44
		c0.08-0.1,0.17-0.1,0.26-0.03c0.8,0.92,1.71,1.73,2.55,2.61c0.12,0.12,0.29,0.22,0.3,0.42C23.82,28.61,23.64,28.61,23.46,28.61z"/>
	<path class="st30" d="M25.43,13.16c-0.24-0.01-0.35-0.21-0.49-0.35c-0.47-0.47-0.93-0.95-1.39-1.42c0.33,0,0.65,0.01,0.98,0.01
		c-0.03,0.25,0.17,0.36,0.3,0.51c0.29,0.32,0.65,0.57,0.87,0.94c0.1,0.17,0.31,0.09,0.42,0.2C25.92,13.23,25.68,13.25,25.43,13.16z"
		/>
	<path class="st119" d="M11.38,15.91c0.87,0.85,1.73,1.71,2.61,2.56c0.13,0.13,0.27,0.35,0.49,0.1c0.14,0.18,0.08,0.32-0.09,0.44
		c-0.17,0.24-0.26,0.03-0.36-0.06c-0.75-0.75-1.5-1.5-2.25-2.25c-0.11-0.11-0.2-0.26-0.39-0.27C11.38,16.27,11.38,16.09,11.38,15.91
		z"/>
	<path class="st120" d="M11.81,26.13c0.79,0.57,1.47,1.25,2.05,2.04C12.91,27.77,12.23,27.08,11.81,26.13z"/>
	<path class="st91" d="M14.38,19.02c0.03-0.15,0.06-0.3,0.09-0.44c0.03-0.09,0.05-0.18,0.08-0.27c0.06-0.18,0.13-0.36,0.19-0.53
		c0.09-0.18,0.18-0.36,0.26-0.53c0.13-0.2,0.26-0.41,0.4-0.61c0.18-0.21,0.35-0.42,0.53-0.63c0.17-0.15,0.34-0.3,0.51-0.46
		c0.18-0.13,0.36-0.25,0.53-0.38c0.18-0.1,0.36-0.21,0.54-0.31c0.33-0.12,0.65-0.25,0.98-0.37c0.3-0.06,0.6-0.11,0.9-0.17
		c0.2-0.01,0.4-0.01,0.6-0.02c0.33,0.03,0.65,0.06,0.98,0.09c0.55,0.13,1.08,0.31,1.6,0.53c1.07,0.6,1.91,1.43,2.5,2.5
		c0.23,0.52,0.41,1.05,0.53,1.6c0.03,0.33,0.06,0.65,0.09,0.98c-0.01,0.2-0.01,0.4-0.02,0.6c-0.06,0.3-0.11,0.6-0.17,0.9
		c-0.16,0.39-0.31,0.77-0.47,1.16c-0.13,0.21-0.26,0.42-0.4,0.63c-0.13,0.17-0.26,0.33-0.39,0.5c-0.15,0.15-0.31,0.31-0.46,0.46
		c-0.24,0.09-0.39,0.31-0.59,0.46c-0.15,0.09-0.3,0.18-0.45,0.28c-0.18,0.09-0.36,0.18-0.53,0.26c-0.18,0.06-0.36,0.13-0.53,0.19
		c-0.18,0.05-0.36,0.1-0.54,0.15c-0.09,0.01-0.18,0.02-0.26,0.03c-0.27,0.03-0.53,0.05-0.8,0.08c-0.24-0.01-0.47-0.02-0.71-0.02
		c-0.16-0.1-0.35-0.07-0.52-0.08c-0.44-0.15-0.88-0.3-1.32-0.45c-1.17-0.62-2.06-1.52-2.69-2.68c-0.15-0.44-0.3-0.88-0.45-1.32
		c-0.01-0.18,0.01-0.36-0.08-0.52c-0.01-0.24-0.02-0.47-0.02-0.71C14.32,19.61,14.35,19.32,14.38,19.02z"/>
	<path class="st121" d="M25.43,13.16c0.22-0.09,0.46-0.13,0.7-0.12c0.61,0.24,0.77,0.48,0.79,1.16c-0.13,0.3-0.31,0.56-0.62,0.7
		c-0.92,0.13-1.4-0.34-1.26-1.21C25.11,13.47,25.28,13.33,25.43,13.16z"/>
	<path class="st52" d="M22.13,22.67c-0.17,0.2-0.39,0.31-0.62,0.41c-1.5-1.57-3.02-3.1-4.59-4.59c0.09-0.24,0.21-0.45,0.41-0.62
		c0.19-0.12,0.31,0.03,0.42,0.14c1.42,1.41,2.84,2.83,4.25,4.26C22.1,22.36,22.25,22.48,22.13,22.67z"/>
	<path class="st98" d="M23.29,20.9c-0.02,0.26-0.11,0.49-0.27,0.7c-0.22,0-0.34-0.15-0.48-0.29c-1.29-1.28-2.57-2.57-3.86-3.86
		c-0.13-0.13-0.29-0.26-0.29-0.48c0.21-0.16,0.44-0.25,0.7-0.27c0.15-0.06,0.21,0.06,0.29,0.14c1.23,1.28,2.48,2.54,3.76,3.76
		C23.22,20.69,23.35,20.75,23.29,20.9z"/>
	<path class="st122" d="M23.29,20.9c-1.43-1.37-2.83-2.77-4.2-4.19c0.13-0.11,0.29-0.09,0.44-0.09c0.45-0.12,0.79,0,1.13,0.36
		c0.75,0.81,1.54,1.6,2.35,2.35c0.36,0.33,0.49,0.67,0.36,1.13C23.38,20.61,23.39,20.77,23.29,20.9z"/>
	<path class="st51" d="M16.91,18.49c0.23,0.04,0.39,0.19,0.55,0.35c1.23,1.23,2.46,2.46,3.69,3.69c0.16,0.16,0.31,0.31,0.35,0.55
		c-0.19,0.11-0.38,0.22-0.61,0.22c-0.11,0.05-0.16-0.03-0.22-0.09c-1.28-1.31-2.57-2.61-3.88-3.88c-0.06-0.06-0.14-0.11-0.09-0.22
		C16.7,18.87,16.8,18.68,16.91,18.49z"/>
	<path class="st59" d="M22.13,22.67c0-0.17-0.12-0.26-0.23-0.36c-1.41-1.41-2.81-2.81-4.22-4.22c-0.1-0.1-0.19-0.23-0.36-0.23
		c0.11-0.19,0.25-0.34,0.43-0.45c0.21-0.11,0.33,0.05,0.46,0.17c1.4,1.4,2.81,2.8,4.2,4.2c0.12,0.12,0.28,0.24,0.17,0.46
		C22.46,22.42,22.32,22.57,22.13,22.67z"/>
	<path class="st49" d="M22.58,22.24c0-0.19-0.14-0.28-0.26-0.4c-1.39-1.39-2.78-2.78-4.17-4.17c-0.11-0.11-0.21-0.25-0.4-0.25
		c0.16-0.22,0.41-0.32,0.64-0.44c1.51,1.58,3.04,3.12,4.62,4.62C22.93,21.85,22.78,22.07,22.58,22.24z"/>
	<path class="st123" d="M23.38,20.46c0.06-0.42-0.1-0.72-0.42-1.02c-0.91-0.86-1.79-1.75-2.65-2.66c-0.25-0.26-0.52-0.1-0.78-0.16
		c1.39-0.34,3.1,0.64,3.66,2.12C23.4,19.29,23.55,19.86,23.38,20.46z"/>
	<path class="st124" d="M16.7,19.1c1.43,1.37,2.83,2.76,4.19,4.2c-0.13,0.11-0.29,0.09-0.44,0.09c-0.04,0.03-0.08,0.03-0.12,0.02
		c-0.14-0.05-0.24-0.17-0.34-0.27c-1.04-1.04-2.08-2.08-3.12-3.12c-0.1-0.1-0.22-0.2-0.27-0.34c-0.01-0.04-0.01-0.08,0.01-0.12
		C16.61,19.39,16.59,19.23,16.7,19.1z"/>
	<path class="st125" d="M16.61,19.54c0.01,0.04,0.01,0.07,0.02,0.11c0.08,0.23,0.22,0.4,0.4,0.57c0.93,0.91,1.84,1.82,2.75,2.75
		c0.17,0.17,0.35,0.31,0.57,0.4c0.04,0.01,0.07,0.01,0.11,0.02c-0.46,0.14-0.91,0.07-1.35-0.09c-0.81-0.8-1.61-1.6-2.41-2.4
		C16.54,20.45,16.47,20,16.61,19.54z"/>
	<path class="st126" d="M16.7,20.89c0.92,0.68,1.72,1.48,2.41,2.4C17.97,23.07,16.92,22.02,16.7,20.89z"/>
	<path class="st127" d="M20.35,23.37c-0.22,0.03-0.37-0.02-0.54-0.2c-0.98-1.01-1.97-2.01-2.98-2.98c-0.18-0.17-0.23-0.32-0.2-0.54
		C17.9,20.86,19.14,22.1,20.35,23.37z"/>
</g>
</svg>
