<?xml version="1.0" encoding="utf-8"?>
<!-- Generator: Adobe Illustrator 26.0.3, SVG Export Plug-In . SVG Version: 6.00 Build 0)  -->
<svg version="1.1" id="Layer_1" xmlns="http://www.w3.org/2000/svg" xmlns:xlink="http://www.w3.org/1999/xlink" x="0px" y="0px"
	 viewBox="0 0 40 40" style="enable-background:new 0 0 40 40;" xml:space="preserve">
<style type="text/css">
	.st0{fill:#0B69C6;}
	.st1{fill:#FDFDFE;}
</style>
<g>
	<path class="st0" d="M18.51,0c1.02,0,2.03,0,3.05,0c0.03,0.08,0.1,0.07,0.16,0.08c3.04,0.26,5.9,1.14,8.5,2.74
		c5.34,3.29,8.54,8.03,9.56,14.24c0.08,0.47,0.05,0.95,0.22,1.4c0,1.07,0,2.14,0,3.21c-0.13,0.06-0.08,0.18-0.08,0.28
		c-0.32,3.11-1.21,6.04-2.94,8.64c-4.59,6.92-11.06,10.08-19.34,9.3c-3.94-0.37-7.46-1.91-10.44-4.5
		c-5.87-5.11-8.18-11.58-6.8-19.24C1.86,7.93,8.75,1.42,17.03,0.22C17.52,0.15,18.03,0.16,18.51,0z M21.04,18.13
		c0-0.24,0-0.48,0-0.72c-0.01-0.57-0.21-0.79-0.77-0.79c-0.9-0.01-1.8-0.01-2.7,0c-0.56,0-0.78,0.22-0.78,0.79c0,3.95,0,7.9,0,11.85
		c0,0.56,0.22,0.78,0.78,0.78c0.86,0,1.72,0,2.58,0c0.67,0,0.86-0.18,0.86-0.85c0-2.01-0.01-4.01,0-6.02c0-0.74,0.17-1.45,0.56-2.09
		c0.51-0.83,1.28-1.1,2.21-0.98c0.85,0.11,1.34,0.63,1.59,1.42c0.2,0.62,0.23,1.25,0.22,1.89c0,1.95,0,3.91,0,5.86
		c0,0.54,0.22,0.76,0.75,0.76c0.92,0,1.85,0,2.77,0c0.58,0,0.79-0.21,0.79-0.81c0-2.2,0-4.4,0-6.61c0-0.81-0.07-1.61-0.24-2.41
		c-0.3-1.4-0.9-2.61-2.25-3.3C25.36,15.87,22.66,16.4,21.04,18.13z M10.68,23.31c0,1.98,0,3.96,0,5.94c0,0.54,0.24,0.78,0.79,0.79
		c0.86,0,1.72,0,2.58,0c0.61,0,0.86-0.24,0.86-0.85c0-3.91,0-7.82,0-11.72c0-0.61-0.24-0.84-0.86-0.85c-0.83,0-1.67,0-2.5,0
		c-0.65,0-0.87,0.22-0.87,0.87C10.68,19.42,10.68,21.37,10.68,23.31z M10.06,12.76c0,1.51,1.23,2.73,2.74,2.72
		c1.5,0,2.74-1.26,2.73-2.75c-0.02-1.51-1.24-2.73-2.75-2.72C11.27,10.01,10.06,11.24,10.06,12.76z"/>
	<path class="st1" d="M21.04,18.13c1.61-1.73,4.32-2.26,6.39-1.21c1.35,0.68,1.95,1.89,2.25,3.3c0.17,0.79,0.24,1.6,0.24,2.41
		c0,2.2,0,4.4,0,6.61c0,0.6-0.21,0.8-0.79,0.81c-0.92,0-1.85,0-2.77,0c-0.54,0-0.75-0.22-0.75-0.76c0-1.95,0-3.91,0-5.86
		c0-0.64-0.02-1.28-0.22-1.89c-0.26-0.78-0.75-1.31-1.59-1.42c-0.93-0.12-1.7,0.14-2.21,0.98c-0.39,0.64-0.55,1.35-0.56,2.09
		c-0.01,2.01,0,4.01,0,6.02c0,0.67-0.19,0.85-0.86,0.85c-0.86,0-1.72,0-2.58,0c-0.56,0-0.78-0.22-0.78-0.78c0-3.95,0-7.9,0-11.85
		c0-0.57,0.21-0.79,0.78-0.79c0.9-0.01,1.8-0.01,2.7,0c0.56,0,0.76,0.22,0.77,0.79C21.05,17.65,21.04,17.89,21.04,18.13z"/>
	<path class="st1" d="M10.68,23.31c0-1.94,0-3.88,0-5.82c0-0.65,0.22-0.86,0.87-0.87c0.83,0,1.67,0,2.5,0
		c0.62,0,0.86,0.24,0.86,0.85c0,3.91,0,7.82,0,11.72c0,0.61-0.24,0.84-0.86,0.85c-0.86,0-1.72,0-2.58,0c-0.54,0-0.79-0.24-0.79-0.79
		C10.68,27.27,10.68,25.29,10.68,23.31z"/>
	<path class="st1" d="M10.06,12.76c0-1.52,1.21-2.74,2.71-2.75c1.51,0,2.73,1.21,2.75,2.72c0.01,1.49-1.23,2.74-2.73,2.75
		C11.29,15.48,10.06,14.27,10.06,12.76z"/>
</g>
</svg>
