<?xml version="1.0" encoding="utf-8"?>
<!-- Generator: Adobe Illustrator 26.0.3, SVG Export Plug-In . SVG Version: 6.00 Build 0)  -->
<svg version="1.1" id="Layer_1" xmlns="http://www.w3.org/2000/svg" xmlns:xlink="http://www.w3.org/1999/xlink" x="0px" y="0px"
	 viewBox="0 0 40 40" style="enable-background:new 0 0 40 40;" xml:space="preserve">
<style type="text/css">
	.st0{fill:#3B5998;}
	.st1{fill:#FCFDFD;}
	.st2{fill:#00A6DD;}
	.st3{fill:#FDFEFE;}
</style>
<g>
	<path class="st0" d="M-347.53-81.44c0,1.01,0,2.03,0,3.04c-0.11,0.05-0.07,0.15-0.08,0.24c-0.13,1.45-0.38,2.89-0.87,4.26
		c-2.74,7.69-8.13,12.28-16.2,13.7c-0.45,0.08-0.92,0.05-1.36,0.21c-1.02,0-2.03,0-3.05,0c-0.04-0.1-0.13-0.07-0.2-0.08
		c-1.97-0.18-3.87-0.63-5.7-1.36c-8.44-3.35-13.62-12.23-12.35-21.19c0.66-4.68,2.66-8.72,6.17-11.89
		c5.71-5.16,12.39-6.77,19.7-4.41c7.78,2.51,12.31,8.07,13.73,16.13C-347.65-82.35-347.68-81.88-347.53-81.44z M-366.05-72.64
		c0-2.07,0.01-4.13-0.01-6.2c0-0.27,0.07-0.35,0.35-0.35c0.96,0.02,1.93,0,2.89,0.01c0.24,0,0.35-0.05,0.37-0.31
		c0.12-1.29,0.25-2.59,0.4-3.88c0.04-0.32-0.03-0.43-0.38-0.42c-1.11,0.02-2.21,0-3.32,0.01c-0.24,0-0.32-0.06-0.31-0.3
		c0.02-0.79,0-1.59,0.01-2.38c0.02-0.88,0.39-1.25,1.27-1.26c0.82-0.01,1.64-0.01,2.46,0c0.24,0,0.32-0.07,0.32-0.31
		c-0.01-1.29-0.01-2.57,0-3.86c0-0.21-0.06-0.3-0.28-0.3c-1.44,0.02-2.89-0.06-4.33,0.02c-2.81,0.17-4.68,2.08-4.82,4.9
		c-0.05,1.04-0.03,2.08-0.03,3.12c0,0.3-0.09,0.37-0.38,0.36c-0.62-0.02-1.25,0.01-1.87-0.01c-0.26-0.01-0.33,0.08-0.33,0.33
		c0.01,1.31,0.01,2.63,0,3.94c0,0.29,0.1,0.34,0.36,0.34c0.59-0.02,1.17,0.02,1.76-0.01c0.39-0.02,0.47,0.1,0.47,0.47
		c-0.01,4.05,0,8.11-0.02,12.16c0,0.35,0.1,0.43,0.44,0.43c1.54-0.02,3.07-0.02,4.61,0c0.31,0,0.39-0.09,0.39-0.39
		C-366.06-68.56-366.05-70.6-366.05-72.64z"/>
	<path class="st1" d="M-366.05-72.64c0,2.04-0.01,4.08,0.01,6.12c0,0.3-0.08,0.4-0.39,0.39c-1.54-0.02-3.07-0.02-4.61,0
		c-0.34,0-0.44-0.08-0.44-0.43c0.01-4.05,0-8.11,0.02-12.16c0-0.37-0.08-0.5-0.47-0.47c-0.58,0.04-1.17,0-1.76,0.01
		c-0.26,0.01-0.36-0.05-0.36-0.34c0.01-1.31,0.01-2.63,0-3.94c0-0.25,0.06-0.34,0.33-0.33c0.62,0.02,1.25-0.01,1.87,0.01
		c0.28,0.01,0.38-0.06,0.38-0.36c-0.01-1.04-0.02-2.08,0.03-3.12c0.14-2.82,2.01-4.73,4.82-4.9c1.44-0.09,2.89-0.01,4.33-0.02
		c0.23,0,0.29,0.08,0.28,0.3c-0.01,1.29-0.01,2.57,0,3.86c0,0.24-0.08,0.31-0.32,0.31c-0.82-0.01-1.64-0.01-2.46,0
		c-0.89,0.01-1.26,0.37-1.27,1.26c-0.01,0.79,0.01,1.59-0.01,2.38c0,0.24,0.08,0.31,0.31,0.3c1.11-0.01,2.21,0.01,3.32-0.01
		c0.35-0.01,0.41,0.11,0.38,0.42c-0.15,1.29-0.28,2.58-0.4,3.88c-0.02,0.26-0.14,0.31-0.37,0.31c-0.96-0.01-1.93,0.01-2.89-0.01
		c-0.27,0-0.35,0.07-0.35,0.35C-366.05-76.77-366.05-74.7-366.05-72.64z"/>
</g>
<g>
	<path class="st2" d="M18.44,0c1.04,0,2.08,0,3.13,0c0.04,0.1,0.13,0.07,0.2,0.08c3.03,0.27,5.87,1.14,8.46,2.74
		c5.34,3.29,8.54,8.02,9.56,14.22c0.08,0.47,0.05,0.95,0.22,1.4c0,1.04,0,2.08,0,3.12c-0.09,0.04-0.07,0.13-0.08,0.2
		c-0.4,4.3-2,8.11-4.84,11.36c-3.23,3.69-7.29,5.92-12.15,6.66c-0.48,0.07-0.98,0.06-1.44,0.21c-1.04,0-2.08,0-3.13,0
		c-0.06-0.12-0.18-0.07-0.28-0.08c-1.07-0.12-2.14-0.29-3.18-0.57C4.69,36.64-1.65,26.51,0.37,16.14C1.99,7.87,8.74,1.42,17.04,0.22
		C17.5,0.15,17.98,0.17,18.44,0z M15.22,24.74c-0.36,0.3-0.72,0.47-1.08,0.63c-1.13,0.52-2.32,0.74-3.56,0.72
		c-0.22,0-0.47-0.04-0.56,0.24c-0.09,0.31,0.18,0.39,0.37,0.51c0.02,0.01,0.05,0.03,0.07,0.04c3.62,1.86,7.32,2.03,10.96,0.22
		c4.18-2.08,6.23-5.66,6.54-10.27c0.04-0.53,0.15-0.94,0.59-1.28c0.51-0.4,0.93-0.91,1.3-1.45c0.08-0.12,0.23-0.24,0.09-0.41
		c-0.14-0.17-0.29-0.06-0.43,0c-0.33,0.12-0.65,0.3-1.08,0.29c0.43-0.48,0.75-0.96,0.95-1.52c0.05-0.14,0.16-0.29-0.01-0.43
		c-0.14-0.11-0.27-0.01-0.39,0.06c-0.51,0.29-1.05,0.5-1.61,0.7c-0.41,0.14-0.72,0.08-1.07-0.19c-1.44-1.08-3.03-1.23-4.63-0.43
		c-1.6,0.8-2.32,2.17-2.3,3.94c0.01,0.58,0,0.59-0.58,0.5c-2.89-0.41-5.29-1.71-7.19-3.93c-0.32-0.37-0.43-0.37-0.65,0.1
		c-0.75,1.61-0.59,3.13,0.45,4.56c0.08,0.12,0.18,0.23,0.27,0.34c-0.25-0.02-0.46-0.09-0.65-0.18c-0.47-0.21-0.58-0.15-0.54,0.38
		c0.1,1.48,0.79,2.61,2.02,3.42c0.1,0.07,0.24,0.09,0.3,0.24c-0.12,0-0.22,0.01-0.32,0c-0.64-0.06-0.7,0.01-0.44,0.61
		C12.62,23.55,13.69,24.38,15.22,24.74z"/>
	<path class="st3" d="M15.22,24.74c-1.53-0.36-2.6-1.19-3.21-2.57c-0.26-0.6-0.21-0.67,0.44-0.61c0.1,0.01,0.2,0,0.32,0
		c-0.06-0.15-0.2-0.17-0.3-0.24c-1.23-0.81-1.92-1.95-2.02-3.42c-0.04-0.53,0.07-0.59,0.54-0.38c0.2,0.09,0.4,0.16,0.65,0.18
		c-0.09-0.11-0.18-0.22-0.27-0.34c-1.04-1.43-1.19-2.96-0.45-4.56c0.22-0.46,0.33-0.47,0.65-0.1c1.9,2.22,4.31,3.52,7.19,3.93
		c0.59,0.08,0.59,0.07,0.58-0.5c-0.02-1.77,0.71-3.15,2.3-3.94c1.6-0.8,3.18-0.65,4.63,0.43c0.36,0.27,0.67,0.33,1.07,0.19
		c0.55-0.19,1.1-0.41,1.61-0.7c0.12-0.07,0.25-0.17,0.39-0.06c0.17,0.13,0.06,0.28,0.01,0.43c-0.2,0.56-0.52,1.04-0.95,1.52
		c0.43,0.01,0.75-0.17,1.08-0.29c0.14-0.05,0.29-0.16,0.43,0c0.14,0.17,0,0.29-0.09,0.41c-0.37,0.54-0.79,1.05-1.3,1.45
		c-0.43,0.34-0.55,0.74-0.59,1.28c-0.3,4.61-2.35,8.19-6.54,10.27c-3.63,1.8-7.34,1.64-10.96-0.22c-0.02-0.01-0.05-0.02-0.07-0.04
		c-0.19-0.12-0.46-0.21-0.37-0.51c0.08-0.28,0.34-0.24,0.56-0.24c1.24,0.02,2.43-0.2,3.56-0.72C14.5,25.21,14.87,25.04,15.22,24.74z
		"/>
</g>
</svg>
