<?xml version="1.0" encoding="utf-8"?>
<!-- Generator: Adobe Illustrator 26.0.3, SVG Export Plug-In . SVG Version: 6.00 Build 0)  -->
<svg version="1.1" id="Layer_1" xmlns="http://www.w3.org/2000/svg" xmlns:xlink="http://www.w3.org/1999/xlink" x="0px" y="0px"
	 viewBox="0 0 40 40" style="enable-background:new 0 0 40 40;" xml:space="preserve">
<style type="text/css">
	.st0{fill:#F10000;}
	.st1{fill:#FEFDFD;}
	.st2{fill:#F10404;}
</style>
<g>
	<path class="st0" d="M21.49,40c-1.04,0-2.08,0-3.12,0c-0.42-0.18-0.88-0.15-1.32-0.22c-5.07-0.8-9.29-3.15-12.51-7.13
		c-4.02-4.97-5.36-10.66-4.06-16.92C2.21,7.36,9.52,0.87,18.04,0.09c4.27-0.39,8.3,0.41,11.99,2.62c5.47,3.27,8.73,8.07,9.76,14.37
		c0.07,0.45,0.04,0.92,0.21,1.36c0,1.04,0,2.08,0,3.12c-0.15,0.36-0.12,0.75-0.18,1.13c-0.56,3.93-2.11,7.43-4.73,10.41
		c-3.24,3.7-7.3,5.93-12.16,6.68C22.45,39.86,21.95,39.84,21.49,40z M20.01,27.3c1.73,0,3.46-0.06,5.19-0.21
		c0.79-0.07,1.59-0.07,2.34-0.37c1.01-0.41,1.84-1.02,2.05-2.16c0.54-2.87,0.54-5.74,0.09-8.62c-0.12-0.79-0.38-1.48-1.01-2
		c-0.6-0.49-1.29-0.8-2.05-0.88c-4.23-0.47-8.47-0.46-12.7-0.07c-0.69,0.06-1.37,0.19-1.98,0.54c-0.81,0.47-1.39,1.09-1.56,2.07
		c-0.46,2.65-0.51,5.31-0.13,7.97c0.11,0.77,0.17,1.56,0.75,2.17c0.67,0.7,1.48,1.11,2.42,1.21C15.61,27.2,17.81,27.3,20.01,27.3z"
		/>
	<path class="st1" d="M20.01,27.3c-2.2,0-4.4-0.1-6.58-0.35c-0.94-0.11-1.76-0.52-2.42-1.21c-0.59-0.61-0.64-1.4-0.75-2.17
		c-0.38-2.66-0.33-5.31,0.13-7.97c0.17-0.98,0.75-1.6,1.56-2.07c0.61-0.35,1.28-0.48,1.98-0.54c4.24-0.39,8.47-0.4,12.7,0.07
		c0.76,0.08,1.45,0.4,2.05,0.88c0.63,0.52,0.89,1.21,1.01,2c0.45,2.88,0.45,5.76-0.09,8.62c-0.21,1.14-1.05,1.75-2.05,2.16
		c-0.75,0.31-1.55,0.31-2.34,0.37C23.47,27.24,21.74,27.3,20.01,27.3z M23.86,20c-2.05-1.26-4.04-2.48-6.03-3.7
		c-0.23-0.14-0.22,0-0.22,0.16c0,2.35,0,4.71,0,7.06c0,0.21,0.02,0.3,0.25,0.16C19.83,22.47,21.81,21.25,23.86,20z"/>
	<path class="st2" d="M23.86,20c-2.04,1.25-4.02,2.47-6,3.68c-0.23,0.14-0.25,0.05-0.25-0.16c0-2.35,0-4.71,0-7.06
		c0-0.16-0.01-0.31,0.22-0.16C19.82,17.52,21.81,18.74,23.86,20z"/>
</g>
</svg>
